<svg xmlns="http://www.w3.org/2000/svg" viewBox="0 0 918.46 728.46"><defs><style>.cls-1{fill:#0c151e;}</style></defs><g id="Layer_2" data-name="Layer 2"><g id="Layer_7" data-name="Layer 7"><path class="cls-1" d="M459.23,151.89h-.5c-29.55.12-50.25,5.73-51.12,6l-6.73,1.85,19.77,29.13,3.51-1.06c.21-.06,20.77-6.17,35.07-6.31,14.3.14,34.87,6.25,35.08,6.31l3.51,1.06,19.76-29.13-6.72-1.85c-.88-.25-21.58-5.86-51.13-6h-.5Zm34.4,25.33c-6.77-1.83-21.85-5.52-33.9-5.72v0h-1v0c-12,.2-27.12,3.89-33.89,5.72L417.19,166a219.16,219.16,0,0,1,84.08,0Z"/><path class="cls-1" d="M379.54,88.75a15.74,15.74,0,0,0,1,1.59c9.83,16.26,17.44,44.59,19.89,56l1.19,5.54L407,150c12.68-4.44,47.36-5.4,52.27-5.51,4.92.11,39.6,1.07,52.28,5.51l5.35,1.87,1.19-5.54c2.44-11.4,10.06-39.73,19.89-56q.55-.81,1-1.59a36.89,36.89,0,0,1,5.26-6.62l4.89-4.67-5.91-3.31C517.71,59.91,512.83,62.36,511,63.28c-4.11,2-5.09,7.65-6.87,17.82-1,5.6-3,16.93-5.31,19.52a10.63,10.63,0,0,1-2.16-.17c-10.37-1.94-16.09-3-19.22-19.94-3.63-19.57-5.88-25.16-6.13-25.73l-1.3-3H448.45l-1.3,3c-.24.57-2.5,6.16-6.12,25.73-3.14,16.93-8.85,18-19.23,19.94a10.57,10.57,0,0,1-2.16.17c-2.35-2.59-4.33-13.92-5.31-19.52-1.77-10.17-2.75-15.77-6.86-17.82-1.84-.92-6.72-3.37-32.18,10.87l-5.9,3.31,4.89,4.67A37.34,37.34,0,0,1,379.54,88.75ZM514,82.82c.59-3.37,1.35-7.74,2.06-10.1,3.23.78,9.81,3.63,16.83,7.25-1.17,1.56-2.3,3.26-3.4,5.06-2.86,3.86-10.77,9.17-18.59,12.5A138.37,138.37,0,0,0,514,82.82Zm-90.33,27.46c13.36-2.5,23.14-6,27.21-27.95,2-11,3.6-17.29,4.54-20.58h7.67c.93,3.29,2.5,9.59,4.53,20.58,4.07,22,13.85,25.45,27.22,28a18.71,18.71,0,0,0,3.51.31c6.46,0,14.61-2.68,22-6.5a284.15,284.15,0,0,0-10.87,35c-16.13-3.65-44.54-4.46-49.82-4.58h-.82c-5.27.12-33.69.93-49.82,4.58a283.77,283.77,0,0,0-10.86-35c7.38,3.82,15.53,6.5,22,6.5A18.71,18.71,0,0,0,423.65,110.28ZM402.43,72.72c.7,2.36,1.46,6.73,2.05,10.1a140.9,140.9,0,0,0,3.1,14.71C399.76,94.2,391.86,88.89,389,85c-1.09-1.8-2.22-3.5-3.39-5.06C392.61,76.35,399.19,73.5,402.43,72.72Z"/><path class="cls-1" d="M289.15,163.86c6.32-2.07,12.82-4.08,19.34-6a54.71,54.71,0,0,1,7.75-1.61,112.21,112.21,0,0,0,29.67,42.24l6.64-7.48a102,102,0,0,1,0-152.6L345.91,31a112.09,112.09,0,0,0-37.68,83.78c0,.94,0,1.89,0,2.83-7.4,2.09-14.86,4.36-22.24,6.78a550.81,550.81,0,0,0-67.47,27.27L215.73,153V194.1l7.18-3.47A541.24,541.24,0,0,1,289.15,163.86Zm-63.42-4.58a540.15,540.15,0,0,1,63.42-25.42c6.59-2.16,13.24-4.2,19.85-6.1a113,113,0,0,0,3.89,18.92,63.89,63.89,0,0,0-7.17,1.61c-6.64,1.92-13.26,4-19.69,6.07a551.37,551.37,0,0,0-60.3,23.86Z"/><path class="cls-1" d="M403.48,264.25l23.9,30.3,3.52-1.5a90.77,90.77,0,0,1,18.61-5l9.71,9.9h0l9.7-9.9a91,91,0,0,1,18.62,5l3.51,1.5L515,264.25h7.81l40-40H355.66l40,40Zm27.13,18.24-14.39-18.24h10l14.95,15.25A102.63,102.63,0,0,0,430.61,282.49Zm57.25,0a103,103,0,0,0-10.53-3l14.95-15.25h10Zm6.87-48.24h43.93l-20,20H494.73Zm-10,0v23l-25.5,26.34-25.5-26.34v-23Zm-61,0v20H399.8l-20-20Z"/><path class="cls-1" d="M910,93.93c-.91-.66-2.21-1.61-2.85-2.21a11.16,11.16,0,0,0-3.76-7.33c-2.38-2.13-6.87-4.48-14.74-3.61-8.95,1-19.19,1.9-27.36.09a35.34,35.34,0,0,1-7.91-3.33c-5.89-3-13.21-6.79-20.83-2-1.65,1-3,1.92-4.1,2.71s-2,1.34-2.82,1.82A28,28,0,0,1,833.79,74a56.39,56.39,0,0,0,10.76-7.47c9.63-8.56,22.85-30.78,21.67-46.12L864.65,0l-8,18.79c-.1.25-10.52,24.2-31.22,32.3-19.47,7.62-45.31,31.68-49.37,46a12.48,12.48,0,0,0-.25,6.74c-2.52,6.16-9.8,25-11.53,41.44-1.54,14.58-10.38,26.88-13,30.3-7.59,4.34-13.8,8.75-16.21,12.53-2,3.2-5.38,7.39-9.26,12.23-9.09,11.36-20.4,25.49-26.19,40.68-7.89,20.72-15.89,40.72-16,40.92l.41.17a54,54,0,0,0-4.48,4.34c-3,3.32-8.53,8.11-14.95,13.65-11.9,10.28-26.73,23.09-33.58,34.05a87.37,87.37,0,0,0-8.22,17.95c-7.15-2.65-20.35-5.24-36.61,2.15-11.83,5.38-27.81,19.16-33.91,40.3-3.58,12.4-4.78,31.84,9.81,54,18,27.28,24.24,59.63,14.93,76.91-4.77,8.85-13.44,13.34-25.76,13.34-15.92,0-26.91-3.11-30.94-8.76a9.32,9.32,0,0,1-1.13-2.12c5.11-1.85,12.76-5.57,15.44-11.93a12.62,12.62,0,0,0-1.05-11.71,41.7,41.7,0,0,0-7.92-9.26c-6.27-5.94-10.06-9.53-2.86-25.13l5.38-11.64-11.84,4.93c-.58.25-14.22,6.08-18.86,21.15-3,9.62-3.47,24.69,2.4,35.05a20.5,20.5,0,0,0,9,8.66,19.31,19.31,0,0,0,3.13,7.58c6.06,8.75,19.26,13.18,39.24,13.18,20.29,0,30-10.11,34.56-18.59,11.13-20.66,4.81-56.5-15.38-87.16-9.89-15-12.85-30.83-8.55-45.73,4.83-16.73,17.76-29.11,28.44-34,13.93-6.33,24.75-3.63,29.77-1.6-2.68,11.92-2.78,23.69,2.22,30.12,6.53,8.39,16.28,13.19,19.51,14.62.66.69,1.35,1.37,2.1,2l2.15,1.92c12.07,10.77,18.9,16.87,21.38,26.47-1.1,3.69-4.8,15.5-9.48,23.31-7.65,12.74-8.32,34.89,5.5,50.84a217.17,217.17,0,0,1,15.68,20l-11.26,19.22H250.6L239.34,531A218.45,218.45,0,0,1,255,511c13.82-15.95,13.16-38.1,5.51-50.84-4.68-7.81-8.39-19.62-9.48-23.31,2.48-9.6,9.3-15.7,21.37-26.47l2.16-1.92c.74-.67,1.43-1.35,2.09-2,3.23-1.43,13-6.23,19.52-14.62,5-6.43,4.9-18.2,2.22-30.12,5-2,15.84-4.73,29.76,1.6,10.68,4.86,23.62,17.24,28.45,34C360.9,412.17,358,428,348.06,443c-20.19,30.66-26.52,66.5-15.39,87.16,4.57,8.48,14.28,18.59,34.56,18.59,20,0,33.18-4.43,39.24-13.18a19.34,19.34,0,0,0,3.14-7.58,20.55,20.55,0,0,0,9-8.66C424.49,509,424,493.9,421,484.28c-4.64-15.07-18.28-20.9-18.85-21.15l-11.84-4.93,5.37,11.64c7.2,15.6,3.42,19.19-2.86,25.13a42,42,0,0,0-7.92,9.26c-2.87,4.93-2.16,9.09-1.05,11.71,2.69,6.36,10.33,10.08,15.45,11.93a9.37,9.37,0,0,1-1.14,2.12c-4,5.65-15,8.76-30.94,8.76-12.32,0-21-4.49-25.75-13.34-9.32-17.28-3-49.63,14.93-76.91,14.59-22.16,13.38-41.6,9.8-54-6.1-21.14-22.08-34.92-33.91-40.3-16.26-7.39-29.46-4.8-36.61-2.15a86.84,86.84,0,0,0-8.22-17.95c-6.85-11-21.67-23.77-33.58-34.05-6.42-5.54-12-10.33-14.94-13.65a54.29,54.29,0,0,0-4.49-4.34l.41-.17c-.08-.2-8.07-20.2-16-40.92-5.79-15.19-17.11-29.32-26.2-40.68-3.88-4.84-7.22-9-9.26-12.23-2.41-3.78-8.61-8.19-16.2-12.53-2.67-3.42-11.51-15.72-13-30.3-1.73-16.43-9-35.28-11.54-41.44a12.36,12.36,0,0,0-.24-6.74c-4.07-14.28-29.91-38.34-49.38-46C72.36,43,61.94,19,61.83,18.79L53.82,0,52.25,20.37c-1.18,15.34,12,37.56,21.66,46.12A56.71,56.71,0,0,0,84.67,74,27.85,27.85,0,0,1,92.8,80C92,79.56,91.07,79,90,78.22s-2.44-1.68-4.1-2.71c-7.61-4.76-14.94-1-20.83,2a35.47,35.47,0,0,1-7.9,3.33c-8.17,1.81-18.41.91-27.37-.09-7.86-.87-12.35,1.48-14.73,3.61a11.17,11.17,0,0,0-3.77,7.33,34.84,34.84,0,0,1-2.85,2.21C4.6,96.72-1.82,101.4.49,108.33c1.23,3.7,4.35,6.26,7.68,8,1.91,3.41,6.83,6.28,15.48,9.16,1.92.64,6.78,6.34,9.4,9.4,5,5.82,7.73,8.9,11,9.71a17.45,17.45,0,0,0,4.28.5,28.47,28.47,0,0,0,5.21-.53c11.66,7.58,11.74,33,11.54,43.58-.77.64-1.5,1.28-2.18,1.9-12.69,11.53-16.41,44.47-15.3,56.76a30.3,30.3,0,0,0-1.32,9.39,61.56,61.56,0,0,1,.1,8.21C23.3,285.2,13.08,305.77,14.24,329c.93,18.63,15.39,22.79,25,25.54a49.19,49.19,0,0,1,7.8,2.68c9.51,4.76,24.13,15.45,24.28,15.56l1.32,1h4.16l17.4,22.75,12.06-39.21-17.74-9.55-7.32,0c-3.87-3-9.44-7.19-15.06-11.13a36.42,36.42,0,0,1-10-11.13c2.59-.4,5.55-.63,8.95-.87a162.32,162.32,0,0,0,21.14-2.57c11.46,15.26,32.52,21,51.16,26,8.36,2.26,16.26,4.41,21.65,7.1a53.63,53.63,0,0,1,21.9,20.66,85.17,85.17,0,0,0-3.61,39.63c3.7,24.06,42.51,58.49,53.8,68.05-8.59,17.32-25.67,38.15-33.56,46.83l-3.36,3.69,3.91,3.56-13.34,12.61H66.66L244.13,727.71l43.82.75-32.32-32.55,178-52.16h51.17l178,52.16-32.31,32.55,43.82-.75L851.8,550.25H733.72l-13.33-12.61,3.91-3.56-3.37-3.69c-7.88-8.68-25-29.51-33.55-46.83,11.28-9.56,50.09-44,53.79-68.05a85.31,85.31,0,0,0-3.6-39.63,53.63,53.63,0,0,1,21.9-20.66c5.38-2.69,13.28-4.84,21.64-7.1,18.65-5.07,39.7-10.78,51.17-26a162.2,162.2,0,0,0,21.13,2.57c3.4.24,6.37.47,9,.87a36.37,36.37,0,0,1-10,11.13c-5.63,3.94-11.2,8.14-15.07,11.13l-7.32,0-17.73,9.55,12.06,39.21,17.39-22.75h4.17l1.32-1c.15-.11,14.77-10.8,24.28-15.56a49.19,49.19,0,0,1,7.8-2.68c9.57-2.75,24-6.91,25-25.54,1.16-23.23-9.06-43.8-32.12-64.59a65.12,65.12,0,0,1,.1-8.21,30,30,0,0,0-1.32-9.39c1.12-12.29-2.61-45.23-15.29-56.76-.69-.62-1.42-1.26-2.19-1.9-.19-10.58-.11-36,11.54-43.58a28.57,28.57,0,0,0,5.22.53,17.51,17.51,0,0,0,4.28-.5c3.24-.81,6-3.89,11-9.71,2.61-3.06,7.48-8.76,9.39-9.4,8.65-2.88,13.57-5.75,15.49-9.16,3.32-1.74,6.44-4.3,7.68-8C920.29,101.4,913.87,96.72,910,93.93ZM507,487.22a22.66,22.66,0,0,1,2-4.52c-.33,9.95,5.12,15.11,9.78,19.53a32.59,32.59,0,0,1,6.16,7c1,1.64.64,2.41.48,2.78-1.22,2.9-7.32,5.77-11.79,7.12a10.22,10.22,0,0,1-5.05-4.77C504.38,507,504.65,494.91,507,487.22ZM393.07,512.05c-.15-.37-.48-1.14.48-2.78a32.87,32.87,0,0,1,6.16-7c4.67-4.42,10.12-9.58,9.78-19.53a22.1,22.1,0,0,1,2,4.52c2.37,7.69,2.63,19.82-1.53,27.18a10.19,10.19,0,0,1-5.06,4.77C400.4,517.82,394.29,515,393.07,512.05Zm66.66,48.2h21.61v22.82l-22.11,22.11-22.11-22.11V560.25h22.61ZM97.11,319.42c3.74-1.08,7.69-2.38,11.92-4,21.89-8.42,27.21-32.11,30.73-47.78l.21-.94,12.57,19.55-30.35,46.56,1.34.88C113.34,330.33,103.71,326,97.11,319.42Zm34.78,16.81,26.57-40.76,12.21,19-18,27.64c-4-1.26-8.27-2.43-12.69-3.63C137.32,337.74,134.61,337,131.89,336.23Zm31.58,10c-.4-.2-.82-.38-1.23-.57l14.36-22,18.11,28.18a53.52,53.52,0,0,0-9.15,13A63,63,0,0,0,163.47,346.28Zm42,198.1,3.37,3.07,6.73-7.4-7.35-6.68c10.21-11.75,38-45.65,38-66.62h-10a25.27,25.27,0,0,1-1.18,7.06C219,459.88,189.88,431.55,187.17,414c-3.61-23.48,6.09-49,17.06-57.24a62.88,62.88,0,0,0,18.55-21.93l-9.1-4.14a52.55,52.55,0,0,1-11.3,14.61l-57.71-89.78c4.43-1.63,14.88-.49,23.59,2.19l3-9.56c-5.11-1.57-30.89-8.75-37.45,4.37-1.54,3.09-2.52,7.44-3.76,12.94-3.23,14.41-7.66,34.13-24.56,40.63-18.07,6.95-30.84,7.86-41.1,8.6a101.64,101.64,0,0,0-11,1.15,21.11,21.11,0,0,0-17,15.94l9.81,2a10.11,10.11,0,0,1,1.36-3.1,46.13,46.13,0,0,0,12.87,14.21c9.74,6.83,19.64,14.73,19.74,14.81l1.5-1.87,4.37,0,8.27,4.45L90.31,375l-7.08-9.25v-2H75.85c-4-2.85-15.78-11.17-24.38-15.47A55.63,55.63,0,0,0,42,344.93c-10.64-3.06-17.19-5.49-17.73-16.43-.86-17.09,5.72-32.76,20.55-48.59-.27,1.81-.46,2.93-.47,3l9.85,1.74c.12-.72,3.1-17.79,2.05-29.32-.53-5.85,9.12-32,25.09-43.05,8.58-5.93,17.33-6.58,26.74-2l4.38-9c-12.59-6.12-25.31-5.16-36.81,2.77a63.31,63.31,0,0,0-15.87,16.62c2.07-9.8,5.42-19.16,9.86-23.19,10.48-9.53,33.92-23.24,34.15-23.38l-5-8.64c-.7.41-12.7,7.43-23.64,15.13-.23-12-1.92-28.86-10.36-39.18q2.48-.87,5.32-2c6.28-2.42,8-6.28,8.42-9.09,1-7.65-7.53-14.35-9.26-15.61l-3,4-3,4c2.73,2,5.09,5,5.25,6.14a5.74,5.74,0,0,1-2.08,1.17c-10.34,4-16.44,5.5-19.67,4.89-1.25-.88-4.16-4.29-6.12-6.58-5.61-6.56-9.6-11-13.84-12.38a53.8,53.8,0,0,1-7.29-2.94l.54-3.25c-4.24-.73-8.86-2.77-9.91-4.31A24.64,24.64,0,0,1,14.32,102c3.4-2.48,6.91-5,6.91-9.27a1.16,1.16,0,0,1,.49-.91c.44-.39,2.24-1.65,7-1.12,9.75,1.08,21,2.06,30.64-.09a43.41,43.41,0,0,0,10.3-4.2c5.68-2.91,8.43-4,11-2.44,1.48.92,2.68,1.75,3.75,2.48,5.34,3.66,8.15,5.28,18.9,5.28V88.81a6.9,6.9,0,0,0,1.33-1.62c1.89-3.18,1.08-7.06-2.38-11.51-4.59-5.9-8.65-8.2-12.58-10.43a46.89,46.89,0,0,1-9-6.24,47.27,47.27,0,0,1-6.86-8.1,56.53,56.53,0,0,0,15.72,9.5c9.31,3.64,20.66,11.64,30.35,21.38C130,92.1,133.11,99.11,133,101l-1.55,2.07,1.16,2.67c.09.22,9.72,22.54,11.61,40.53a64.35,64.35,0,0,0,6,20.51c-11.86-5.58-23.18-10.12-27.17-11.69l-3.65,9.31c20.55,8.06,51.38,22.4,55.6,29,2.33,3.66,5.84,8,9.89,13.11,8.66,10.81,19.43,24.27,24.66,38,3.6,9.46,7.23,18.77,10.12,26.12-9.74-6.88-19.13-12.73-19.81-13.15L194.6,266c.28.17,28.49,17.74,36.92,27.09,3.4,3.79,9.16,8.76,15.83,14.53,11.4,9.84,25.59,22.1,31.64,31.78,10.2,16.32,13.95,40.3,9.3,46.28a30.88,30.88,0,0,1-2.27,2.57,41.16,41.16,0,0,0-4.44-26l-4.35,2.46-4.36,2.44c.45.81,10.72,19.79-5,33.83l-2.15,1.92c-17.82,15.9-27.63,24.66-25.5,50.22l5.67-.47a87.8,87.8,0,0,0,6,12.63c5,8.34,6.91,26-4.5,39.15-6.68,7.71-22.22,26.39-22.22,33.28h6.45l7.33,12.5H199.29Zm110.79,45.5,59.86,60.3L340.59,660.6,270.47,590Zm-59.88.12,73.26,73.79L294.1,674.22,210.59,590.1Zm-59.88.13,86.66,87.28-35.57,10.42-96.9-97.61ZM387.07,647l-56.72-57.13,45.41-.1,46.82,46.82Zm46.83-13.23-54-54h-2.07l-251.07.52L263.52,718l-15.18-.26L90.8,560.25H427.12v27l26.61,26.61v19.93Zm274-43.65-83.51,84.12-35.57-10.43L662.06,590Zm-130,70.5-35.57-10.42,59.87-60.3L648,590ZM531.4,647l-35.51-10.41,46.81-46.82,45.41.1Zm103.88,30.43,86.65-87.28,45.82.09-96.91,97.61ZM827.66,560.25,670.13,717.78,655,718,791.72,580.27l-251.07-.52h-2.08l-54,54H464.73V613.82l26.61-26.61v-27H827.66ZM732.9,364.82a53.52,53.52,0,0,0-9.15-13l18.12-28.18,14.36,22c-.41.19-.84.37-1.23.57A63,63,0,0,0,732.9,364.82Zm45.59-26.36c-4.42,1.2-8.71,2.37-12.69,3.63l-18-27.64,12.21-19,26.57,40.76C783.85,337,781.15,337.74,778.49,338.46Zm16.45-4.77,1.34-.88-30.35-46.56,12.56-19.55.21.94c3.52,15.67,8.84,39.36,30.74,47.78,4.22,1.62,8.18,2.92,11.92,4C814.76,326,805.13,330.33,794.94,333.69ZM891.65,116c-4.23,1.41-8.23,5.82-13.84,12.38-1.95,2.29-4.87,5.7-6.12,6.58-3.23.61-9.33-.91-19.66-4.89a5.83,5.83,0,0,1-2.09-1.17c.17-1.16,2.52-4.11,5.26-6.14l-3-4-3-4c-1.73,1.26-10.28,8-9.26,15.61.37,2.81,2.14,6.67,8.42,9.09q2.84,1.1,5.32,2c-8.44,10.32-10.14,27.18-10.36,39.18-10.95-7.7-22.94-14.72-23.65-15.13l-5,8.64c.24.14,23.68,13.85,34.16,23.38,4.43,4,7.79,13.39,9.86,23.19A63.34,63.34,0,0,0,842.85,204c-11.49-7.93-24.22-8.89-36.81-2.77l4.38,9c9.41-4.58,18.16-3.93,26.75,2,16,11,25.62,37.2,25.08,43.05-1,11.53,1.93,28.6,2.06,29.32l9.85-1.74s-.21-1.16-.47-3c14.82,15.83,21.4,31.5,20.55,48.59-.55,10.94-7.1,13.37-17.74,16.43a55.83,55.83,0,0,0-9.5,3.35c-8.61,4.3-20.43,12.62-24.39,15.47h-7.38v2L828.16,375l-3.94-12.8,8.26-4.45,4.37,0,1.51,1.87c.1-.08,10-8,19.74-14.81A46.26,46.26,0,0,0,871,330.63a10.39,10.39,0,0,1,1.36,3.1l9.81-2a21.11,21.11,0,0,0-17-15.94,101.84,101.84,0,0,0-11-1.15c-10.26-.74-23-1.65-41.09-8.6-16.9-6.5-21.33-26.22-24.57-40.63-1.24-5.5-2.21-9.85-3.76-12.94-6.56-13.12-32.34-5.94-37.44-4.37l2.94,9.56c8.72-2.68,19.16-3.82,23.6-2.19l-57.72,89.78a52.79,52.79,0,0,1-11.3-14.61l-9.1,4.14a63.15,63.15,0,0,0,18.55,21.93c11,8.22,20.67,33.76,17.06,57.24-2.7,17.56-31.79,45.89-47.88,59.82a25.64,25.64,0,0,1-1.18-7.06h-10c0,21,27.78,54.87,38,66.62l-7.35,6.68,6.73,7.4,3.37-3.07,6.2,5.87H679.46l7.32-12.5h6.45c0-6.89-15.54-25.57-22.22-33.28-11.4-13.16-9.49-30.81-4.49-39.15a88.88,88.88,0,0,0,6-12.63l5.66.47c2.13-25.56-7.68-34.32-25.5-50.22L650.57,401c-15.7-14-5.42-33-5-33.83l-4.36-2.44-4.35-2.46a41.17,41.17,0,0,0-4.43,26,29.16,29.16,0,0,1-2.27-2.57c-4.65-6-.91-30,9.29-46.28,6-9.68,20.24-21.94,31.64-31.78,6.67-5.77,12.44-10.74,15.84-14.53,8.42-9.35,36.63-26.92,36.92-27.09l-5.27-8.5c-.69.42-10.08,6.27-19.81,13.15,2.89-7.35,6.51-16.66,10.12-26.12,5.22-13.72,16-27.18,24.65-38,4.06-5.07,7.56-9.45,9.89-13.11,4.22-6.63,35.06-21,55.61-29l-3.65-9.31c-4,1.57-15.32,6.11-27.18,11.69a64.35,64.35,0,0,0,6-20.51c1.89-18,11.51-40.31,11.61-40.53l1.16-2.67L785.42,101c-.06-1.89,3-8.9,13.28-19.21,9.69-9.74,21-17.74,30.35-21.38a56.59,56.59,0,0,0,15.73-9.5,47.27,47.27,0,0,1-6.87,8.1,46.86,46.86,0,0,1-9,6.24c-3.93,2.23-8,4.53-12.58,10.43-3.47,4.45-4.27,8.33-2.38,11.51a6.87,6.87,0,0,0,1.32,1.62v2.94c10.75,0,13.57-1.62,18.91-5.28,1.06-.73,2.27-1.56,3.74-2.48,2.53-1.58,5.29-.47,11,2.44a43.49,43.49,0,0,0,10.31,4.2c9.67,2.15,20.88,1.17,30.63.09,4.72-.53,6.53.73,7,1.12a1.17,1.17,0,0,1,.48.91c0,4.24,3.52,6.79,6.92,9.27a24.54,24.54,0,0,1,4.16,3.49c-1,1.54-5.66,3.58-9.91,4.31l.55,3.25A54.07,54.07,0,0,1,891.65,116Z"/><path class="cls-1" d="M565.91,191.05l6.64,7.48a112,112,0,0,0,29.67-42.24A54.85,54.85,0,0,1,610,157.9c6.51,1.88,13,3.89,19.33,6a540.74,540.74,0,0,1,66.25,26.77l7.17,3.47V153l-2.82-1.36a551.59,551.59,0,0,0-67.48-27.27c-7.38-2.42-14.84-4.69-22.24-6.78,0-.94,0-1.89,0-2.83A112.06,112.06,0,0,0,572.55,31l-6.64,7.48a102,102,0,0,1,0,152.6Zm63.4-57.19a540.15,540.15,0,0,1,63.42,25.42v18.94a550.57,550.57,0,0,0-60.3-23.86c-6.43-2.11-13-4.15-19.69-6.07a63.4,63.4,0,0,0-7.17-1.61,111,111,0,0,0,3.89-18.92C616.08,129.66,622.73,131.7,629.31,133.86Z"/></g></g></svg>