<svg xmlns="http://www.w3.org/2000/svg" viewBox="0 0 997.92 1178.12"><defs><style>.cls-1{fill:#e8eef3;}.cls-2{fill:#4d79a1;}</style></defs><g id="Layer_2" data-name="Layer 2"><g id="Layer_1-2" data-name="Layer 1"><g id="Group_23" data-name="Group 23"><path id="Path_40" data-name="Path 40" class="cls-1" d="M782.27,402.27h-1.1l-.3-.4-.12-1.3-.68-1.15.25-1.82-1.26-1.78-.44-2.12-1.3-1.63.38-.8-2.49-1.86-.47,0-.13-.83-2.68-1.6-.75-1L769,385.3l-1.27-1.15,0-.79,1-1.19-1.8-3.1-2.68.15L761,380.74l-2.39.16-.88,1.29L756,379.85l-2.32-.32L752.55,381l-.43-.29L751,379.2l-2.07-.15-1-.73-1.68-2.83-1.9.18-1.18-.59-.62-1.3-1.31.47-1.26-.71-.51-2.05-3.31,1.24-1.84.06-1.31,1.8-2-.23-.92-1.07-1.71.7-.79-1.62-1.83-1.73-.47.3-1.24-1.64-1.28-4.46-3-6.49-5-12.78.69-1.2.09-.07,5.85-1.41,5.81-2.92.35-2.36,9.05-10L734.18,325l-5-6.92-1.9-1.06-9-10.5-1.11-1.45-.57-1.68-1.27-1.65,9.81-7.58,11-7.06L743,277.5l3.37-2.67,1.16-2.26,1.27-.8,1.17-.1,10,1,8.61,8.84,16.57-11.85,9.57-18.11-17.12-26.6,1.17-15.19L763.67,204l1.15-3.16,7.07,2.62,3.54-9.31,2.14-.66.68-6.25,4-10.48.4-2.62,1.4-1.38,1.58-2.61.86-.29,1.72-1.8.38-3.52.1-.19,2.2-.94,4-2.67.15-.29,1.59-.41,2.93-2.8.1-1,3.45-.67,4.23-1.38,2.28,0,1.89-.48,6.82,3,1.27.07,1.17,2.27-.22,1.94,1.71.06,3.39,5.91,2.32,6.49,4-1.72.49.83V174l1.11,4.36h2.72l2.83,2.48,1.45,1.93.94.36,1.66,4.55,1.1.87.64,2.18.9.46.1,4.23,12.5-5.69,4.12-1.12,10.15.54,1.51,1,1.21,1.72,11.21,11.52,5.06,5.84,4.19,3.93,14.67,16.74,12.3,12.39,7.32,10.09L944,273.47l.49-.13,1.9,2,4.3,1.15-7.45,18.1,7,.74.85,3.24,1.32-.12,3.63,5.31.67.25,1,1.49.9.28v0l-.4,4.19,4.55-.23-4.62,10.48,0,5.13-4.59,65.46.11.51-2.38,2.81-.94-.57-2.14.09-3.75-.91-.88-.61-1-1.46-3.46.24L937,389.44l-3-1-1.9,2-2-.22-1.7,1.73-1.57-.2-2.2.61-1.27-.55-.73-.87-1.88,0-.65-2.31-3.85-1.1-.42.07-1.26-.93-4,.42-2.17-1.8-3.25,2-2-.08-.64.28-3.72-1.39-1.67.39-2.42,1.47-2.89-.48-1-1.1-2.78.31-.76-.68-2-.12-2.33.47-2,1.08-.45.71-2-.72-.88.65-.37-.52-3.59,1.54-3.8,4.05-.89,1.35-2.48,1.22-.77,1.37-.26,0,.53-1.5-.33-.56,1.59-1.74-.81-1.82,1.46-3.31-10.26-3.57L841.53,377l-17.2,3.87-2.41,1.35-8.2,6.77-.34,1.5.62,5.32.8,2.38.42,4.2-.77-.06-.74-1.37h-2.17l-1.53-.67-2.45-.12-.5.43-.57-.06-.2-.46-.69-.27,0-1-3.4-1.8-1.4,4.45-.36.38-2.18.65-.93-.15-1.1-.7-.4-.51.08-1.77-.89-.86L794,394.71l-2.2,4L790,400l-.11.59-2.46-1.25-1.06,1.92-2.44-.08-.86,1.47-.64.34Z"/><path id="Path_41" data-name="Path 41" class="cls-2" d="M524.18,553.13l-19.42-19.21-7.92-5.23-16.43-4.14-17.8,3.05-1.1-.64-.94-1.17.22-.2-.43-.78,2.06-1.87-3.29-3.13.26-1.07-.47-8.7-2.64-5,0-1.37,8.58-5.17,1.32-3,11.05-6.53,3-.08,1.48-.79,1.2-.82,1.57-2.76,4.93-3L522.71,458l2.55-.36,2-1.15,10.4-9.35.78-2.57-1-1.69-.2-2.7L538,440l1.67-1.51L542,433l1.2-1.57,7.48-.45,1.55-.67,9.07-8.66.16-.25,7.8-8,17.28-5,2.27-2h.8l3.76-3.74-8.9-14.35-3.13-2.3.57-.21L579,382l-.81.15.42-41.64L595.53,313l1.07-.65,9.93-1.24,1.52-.26.1-.22,1.13.22,2.4,2.36,3.82-1.56-1.17-3.5,2.28.7,8.86,9,2,7.61,1.33-.76,1.74,3.08,3.24,2.85.09,1.55h5.62l.43.3,3.17.58,2,1,4.79,3.3,1.47,2.07,2.84,2.43,2,1.23.78,0,4.5,4.28.77,1.2,1.78,4.6,2.75,9.51,2,1,.5.86v2.64l1.48-.14.15.12.86,1.92,0,.8-.12.2-.71.11-1.69,2-2.39,1.66-3.43,3.88.17,2.5,1.28,1.48,3.12.37v-.14l1.85.73,1.82.13,2.08.7,4.15,3.65,4.18,1.13,2.7,2.68.28.47-.75.88-5.45,3.63-9,2-.49,1.16-5.3,3-2.85.35-1-1.12-2.78-1.07-15.78,3.47-1.87.78-.53.86-15.95-.05-.12,14,7.39-.1,1.8.32,10.5,11.21.67,2,2,11.31-1.66,7.4-1.63,2.37-.7,4.26-1.61,4.42-1.05-.34-1.64.78-3.93,7.51-.21,1.24,1.25,1.84-2.42,3.54-.5,1.52-4.68,4.6-2,1.21-5.37,5-1.19.34-.45.86-3.22,2.59-1-.89-2.08.5-.48,1.94.14.25-.61.5-.61,1-1.49,1.09-2.94,1.18-2.12,2.06-1.9.56-2.73-.05-6.46,5.54-.59-.62-1.79-.56L582.68,509l-.82.66-.66-.81-1.67-.22-4.38.94-1.06,1-3.21,5-8.63,26.66-1.65,4.51-.57.8-28.29,8.1-3.17,1.21Z"/><path id="Path_42" data-name="Path 42" class="cls-1" d="M650,322.72l-2.48-1.33-1.18.05-.93-.56-2.48.08L641,320l-.62.57-.21-.64L636.83,318l-1-1.6-6.69,4.68-1.22-4.73-9.89-10-8.1-2.47,1.85,5.55-1.21-1.18-1.75-.35.46-4.76L606.67,306l-.6-.76-.19.17-1.32-1.08-3.9-.58-1.21.06.29-.81-3-1.13-.77,2.32-1.15.21v0l-.57.07,0,0-.18-4-4-2.93-2.56.65-5,3.43-3.33-.47-5.5,1.27-1,1.9-.5,2.59-.15.16-2.71,1.59-3.25.67-.88-.11-5.58-2.16-10.73-5-6.81-2-2.23-.18-1.78.87-.11.63-1.6.14-3.4,1.14-1.73-.61-4.52-2.62-3.91-4.21-3.32-2.43-.62-.71.29-.56-.73-1.72-1.33-.23-.85-1.41.53-.47.82-1.63,2.25-2.6,3.63-1.64,1-1,2.79-.77,1.94-2.74.31-5.19-.6-1-.87-6-.51-.62.28.09.55-.39.2.27,1.07-1.17.24-.17,0-.07.56-.61V262l1,1.05-.34-4.74-.68-1,.35-.09.42-3.2-1.55-5.77-.53-.6-.34-1.26.23-1.56-.77-.43-.24-1.49.11-4.62-.36-.41,2.18-3.69-.71-1.11.93-5.32-2.3.75-.23-.12.11-.66h.4l.13-1.36,1.3-.3-1.2-3.52.43-3.77-2.69-.51,3.14-.43-2-4.75-.94-1.09-.62-1.38-.37-1.47.35-1.43-.46-2.18-2.63-5.72-1.33-.64h0l.34-.33.74-1,.88-4.29-.31-.55,3.58-2.17,2.54-3.3,1.58-5.7.72-9.69.82-3.7-.12-2.78-1.3-.71.35-.36.24-.69,1.9-1.05.75-2.62-.36-.24,1.71-5.21,1.21-2.24,1-3.06,2.45-3.91,3.79-3.38,4.94-5.59,2-.82,3.15-2.42,3.25-1.85.59-.73,2.79-1.56,2.64-3.24,4.86-4.48,1.58-4.43,6.83-6.89,6.94-3.58,3.13-.67,9.72-3.68,2.48-.49,2.23-1.11,1.86-.09,3.13-2.27,16-9.34,6-2.34,2.33-1.36,1.3-.26.74-.77,3.64-1L638.93,81l5.36-3,4.16-1.36,1.45-1.58,2.58-.74,1.33-.84,1.9.31,1.62-.93,3.57.5L668.74,71l3-1.35,3.3-.44.08.09,4.69-.84,6.82-2.19,6.81-.54L700,64.6l4.36,1.19.64,1.39,1.55-2.39,2.52.08,8.8,1.59,10.44-4.94.92-.07.64.54-5.58,8.14.23,6.16,1.45,4.25L727,82.25l2.26,1.89L738,86.51l.66.37.65,1,.74,2.8,1.82,2.22,2.93-.34,2.8-2,3.57.85,3.69,1.62-1.29,11.21.37,1.46,2.32.53-.41.48-2.37.86-1.23,2-.12,1.39-.73.86-.18,1.05-1.41-.43-3,1.8-.55,6,.76,2.21-2,.2-.89,1.83-1.45,1.29.17,1.52,0,0-2.71,1,1.26,1.81-1.28,1,.56,1.87,0,.75-4.89.8,1.23,4.65L739,141l.37,1.89.93,1.25-.2,1-.82.93-.43,1.73-1,1.64-1.67,1.37-.7,1.1-1.23.14-1.55,1-.38,2.43L730.66,157l-.48,1.59-3.36,6.2-.77,4.85-.43,11.5,5,6.27,3.65,3.23,9.06,1.38,6.91-.29,3.27,1.76,1.64,1.6,1.67,2.65,5.39,2.15-2.1,5.79,15.74,5.95-1.07,14,16.75,26-8.5,16.09L769,277.87,761.31,270l-11.26-1.09-2.1.17-2.51,1.58-1.23,2.38L741,275.6l-6.85,9.53L723.49,292l-11,8.5-3.16,2.67-2.78,1.78-1.35.13-1.73,1-.82.85-.51.1-3.52-.41-4.32,1.76,1,4.89-.09.17-3.51,2.14-.89.37-1-2.09-4.07.54-2.53.85-.65.56h-.21l-.56-.11-1.31-1.18-.6-.13-1-2.73-1.46-2.16-1.07-4.37-5.09,1.12-1.67,1.13-.52,1.06-.83-.34-1.6.65-3.61.46-.13,1.22-1.69.8.7,1.28-.07.11,0,1.82-2,1.29-1.32,2-2.26,1.41-.94,1.47-4.7,2.23ZM525,220.65l-.9-1.47-1.24-1.12,2.37.11.1.16.7-.1-.78,2.93Zm-3.74-7.24-.3-.87-1.63-2.35-.16-1.07,1.17.48.82-.21.55.56.52,2.33.64,1.24ZM392,143.31l-1-1.85v-.14l14.13-8.94,2.38-2.12,5.46-6.4,3.84-3.11,14.94-10.18,3.38-1,5-2.08h1.54l6.1,1.15,0,.21-.65.4-.3.43-3.9-1.76,1.09,2-.68,0-4.43,1.24-2.16,2.2-3,2.06-4.2,1.93-9.51,3.35-5.16,2.55-.9,2,1.45,3.49-1,.17-1,1.32-.21,3.71.2.09-5.67,2.32-3.55,3.83-1,.49-3.3-.28-2.6.47-4.67,2.54-.44,0Zm63.57-30.07,1.31-1.3.23-.55,2.22-1.62,1.48-1.91.36-.23h.28l.17.35-.08.63-1.25,2.49-1.36,1.7-.55.8-1,.17-.86,1.11ZM468.7,88.65l-3.52-2.25-.07-.12-.64-3.23V81.91l1.07-1.34,4.17-3.67,2.75-4.09.22-.56,1.23-.13.39-2.31,1.35-1.57,25.89-4.84,4.35-1.06.64.55,2.08-.28,25.64-8.34,1.19-1.19,4.71-1.33,15.19-6.1-.85,1.6L556,49.08l7.49-1,.11,0,0,0L563.16,50,559.83,52l-1.05.3-.74.16-1.25-1-.71.57-.59-.18-3.5,2.7-4,2.07-1.54-.22-2.94-2.7-.69,4.1.27.48-.1,0-2.1-1.54-2.94-.54-.8,2.48.94,1,3.47,2.45,1,.38-.55.63-1.13.25-10.52-.33-3.68.22-4.29,1.11-2.47,1.1-5,5.06-2.78,1.86-1.43.56-1.48.09-2,1.49-3.53-1.3-1,1.9-.95.47h-1.67l-1.33,1.86,0,.08-.91-.1-2.72-1-2.64.93-2.56-.78-3.68,3.24-1-.46L480,80l-1.74,2.36.1,1.5h-2.23l-.62,1-1.23.66-1.45,2-1.32.64-.79,1ZM594.45,56.3l-3.66-2.46-3.49-1.61-1.64-1.87-2.07-3.31L583.53,45l1-5.07.86-1.45.87-.7,1.12-.4,2,0,5.35,2.14L604,41.64l6.31.43,14-.55,17.38-2,3.66.64,18.55-1,9.38.39,1.14.2-.1,0-2.25.48-6.05-.21-2.22.34L658.15,40,654,41.91l-1.11.92-3.58.91-1-.1L646,44.79,638.6,46.4l-.44.47-6.57,1.83-4.72-.26-2,.35,0-.73L623.81,48l-.79-.63,0,.58-4.42-.27-4.9-1.23-3.22.22-1.6,1.1-.85,2-3.12,2.4-3.8,1.15-2,1.1-4.21.23-.06,1.72ZM560.63,44.57l.94,0-2.31.32-.82.07Zm133.2-1.24.71-1,1.42.13.83-.2-.61.79-1.94.95-.2.26Zm20.1-5.68.78-2.71,1.77-3.45,2.18-3.17,4.75-4.25,1.78-.72.13.12,4,.69,4.08.19,19.07-2.62,10.48-1,7-.29-2.36,1.22-2.21.94-2.75.48-5.86,2.82-3.49.63-1.86,2.33-6,2.84L744,32l-5.12.13L732,33.72h-6l0-.17-.86.17h-.94v.18l-2.1.41-.57,1.32-1.19.54-.35-.05-2.2,1.75.77,1.1L718.31,40l-1.48-.56-2.31.22-1,1.35Z"/><path id="Path_43" data-name="Path 43" class="cls-1" d="M486.47,772.73l-2.66-2.38-2.26-1-1.91-.21-6,1.3-5-1.21-3.69.14-7.61,1.94,0-.64,2.62-2.19,1.95-2.89L460,764l-.21-.48.08-1.14.82-2.36-.34-2.27L454,754.63l-2.61-2.7-1.7-.88-2.2-.35-2.14.93-2.38,2.53-1,.13-.3-.12-1.92-2.11-1.22-2.58-1-.66,0-1-1.2-1.22-7-3.2-1.6-1.4-.9-2.2,1.83,0,2.22-10.74-6.38-.87-.91-1.52.51-2.13-.14-.46.86.75,6.82-.17,3.15,1.26,1.27-1.45,2.87-1.14,2.48-2.35-3-1.82-.26-.57.1-.34,1.29-.63,3.18,0,2.4-1.35,2.08-3.1.21-1.52,1,.3,1.73-.44,3.5.85,1.21-2.31.47-3.56,2.84-5.27,2.16,1-.28-4.49,3.39-4.9-.06-.28h.05l7.07-13.48,2.48,1.62,3.89.84,2-.5,2.3-2,2.33-4.51.73-.91,1-.25,1.39.82,3,3.17,3.21,1.73,3.54,1,4,.51,4.06,2.71,3,.18,3.77-1.92,2.63-3.38,1.61-1.12,1.62-.26,3.7.79,2.87-.19,8.55-3.27,3.48-2.94,1.14-.62,6.78,1.33,4.53-.5,1,.27,3.24,2,1.8,1.65,8.17,3L564.1,681l2.2,1.74,2.29,1,6.58,1.69,5.08,3.41,2.67-2.37,2.83,1.59-.19-3.51,1.47-.37,0-3.86-1.15-2.77,0-.44.59-.93.43-2.68-2.78-3.29-.56-3.34L582,664.38l-1.81-.36-1.79-1.67-.66-.71-.22-2.53-.68-1.11-1.91-2.1-.38.4.41-8.77-4.85-1.82.34-2.84-1.72-.74.52-1.4.7-6.75-.24-.48.7-2.88-.6-4.7-1.28-.06-.17-.2-.23-3.24-.6-.42.22-.51-.76-4.14-3.39.51-.09-.1-4.38,1.12.53,3.17.65.22v.24l.34.29-.58,1.35-.13,0-2.16,3.81,1.31.53-.57.61-1.59-.34-3.44.25-.66,2.21-2.24,0-1.8.63-3.36-2-.22-1.07-.57-.14,1.6-2,4.24-2.67-.36-4.55,2.12-2.06.15-.94,3.61.38v-3l-1-.57,0-1.63-1.86-.61,0,0,.19-1.24,2.52-.37L558,605,554,603l.7-3.5-4-.13-.9-.39.37-2.93-.67-.23.15-.78-2-.87-.18-.9-10.72-1.45-2.91-1.06.09-.62-.41-2.42,1.1.33,2-1.68.8-3.87-.11-3.29-10.4-8.49,2.62-11.25,3.14-1.21,29.12-8.32L563,548l1.8-4.9,8.54-26.37,2.84-4.41.24-.23,3.13-.68h.08l1.71,2.16,2.74-2.22,5.76-2.74.07,0,1.91,2,7.67-6.57,2.09,0,3-.88,2.22-2.17,2.75-1.09,2.25-1.63.63-1.09L614,496l1.09,0,4.68-3.77.17-.31.68-.19,5.65-5.2,2.07-1.24,5.4-5.31.58-1.78,3.29-4.78-1.65-2.4,3.13-5.95,2,.67,1.51-1.57-.05-1.14,1.59-4.35.64-3.9,1.58-2.3,1.68-7.46,2-.76,3.31,2.94,3.3,4.11,1.76,3,2.6,5.53,1.26,4.05,2.56-1.17,1.19,1.09,4-3,.31-.08,2.67,3.83L685.21,452l2.71-.95,1.49-1.2.17-.31.63.35.9.11,4.39,3.45,1.56,3.81,1.52,2.29,2.37,1.93,3.78,1.7,1.84,2.22.56,1.66.3,4.34-.29,4.42,1.43,1.88,2,1.5,3.61,5.33,1.36,3.91.11,1.16-1.34,5.2-1.22,2.44-.09,4-.34.73-.33.37L708,504l-5.56,1.06-1.6,2.22-.07,2.28.75,1.55,1.07.93,2,.45-.26.22-2.87.88-1.15,2,.36,4.6-.35,4-.36,2.54L699,528.05l-.1,2.57,3.07.41.45,1,.17,5.3,2.86.92,2.1,0,.09.15.76,2.43,1.23,1.75.22,4.14,2.55,3.15.76,3.33.85.75-1,1.48v3.2l3.75.86,1.65,1.18,1.92-.17-1.58,1-.87,2.23.95,3.62,2.37,1.73,1.89.46.2.35-.08,1.6,2.05,1.88,1.76-1.88.1-1.6.7.76.54-5.45.1-.4.62.07.93-.4,1.43.43,2.59-.12,3.67,2.75,4.2.56,1.88.71,1.56,0,.75.58,3.7-.32,3.85,1.11.12-1.14,1,.35.93-1.27,1.23-.33.06.18.72.15.07.29,1.52,1.36,6.07,0,2.11-.6,3.4-.14.17-4.15.88-.58,1.46-.26.48-1,4.3-.26,2.52-1.07,1.23.6,3.58-.23,2.82.34,0,1.3,2,2.79,1.1,3.15,5.29,5.53,2.27,4.6,2.25.86,1.17.06.09,1.8,1.6,3.6,1.16,1.52,2.6,1.27.92.9,1.65.55,5.05-1.81,10.19,1.67,9-1.84,0,.22,1.87.78.44.87.46.32-.54,1.12.41,1.58,3.33,3.07,2.93-2.2,1.54-.53.44-1.35h0l2.25,3.16,1.9-3.32,4.84,2.55.33.31.28.81,0,.36-1.49,2.2,1.34.7,0,1.66.32,1.1-.27,2.11-3.41,5.5,5.4,2.5,5.64,1.05,4.56,2.11,10.39-.07-.84,6.59-.8-.3-2.7,2.55.48,2.28,1.13,1.09v.1l-2.55,3.17-12.38,2.08,1.26,2.41-.07.6-1.31,2.73-1.19.51-.18,3.05.42.5,0,5.78h8.15l9.6,4.61,2.17,1.92,1,2,2.06.83,8.14,6.66v1.42l1.15,1.31,4.32.67.5,1.59-.26,2.89.82,3.23-.35,1.29-.29.5-3.18.12-1.44,1.37-3.26,1.14L887,686l0,3.09-3.21,3.27.66.76-3.14,3.83-5.25,2.18-.06,1.78-3.95,1.38-1.29,2.37-1.25.6-3.51-2.78-.45-.5-.35-3.19-1.45.74L863,697.4l-1.83,0-1.46-.88-1.95.59-10.64,5-1.46,1.53h-.1l-1.46-.52-12.62,4.22-3.36,2.32-1.31,1.27-1.15-1.55-3.25,1.33-2,2.14L818,714.36l-3,1.23-2.65,1.85-1.23,1.19-.05,1.36-.57.8-5,1.33-1.82,1.07-.39-.14L801,719.74l-2.16-1.82-2.16,1.79-2,1-.47-2.33-3.11-1-.78-1.15-4.46-.4-1.64-1.5-2.43,1.05.35,1.82-1,2.93.45,1.42,4.54,3.64.75.2-1.44,2,0,2.35.17.37-.76-.2,1.08,3.67-3.18-2.1-4.14-.12-.26-.12.14-.43L777,727.54l-2.43-2.17-8.3-1.09-3.71.35-1.19-5.33-.31-.2.35-1.37-4-1.93-1.05-.14-.89-.87-2.78-.42-1.86.75-1.09,1.45-1.44.44-3.77-.07-1.22-.41-4.81.58-.8-.19-2.87-1.68-3.07-3.16,3-.57-1.8-2.13.1-1.07-7.57-5.76-.41.93L723,702.12l-6.77,1.16-1.16.9-2.41-1.89-1,2-.46-.27-1.79,1.67.11,1-3.66,3,7.38.15,2.51,1.79,1.38.65,1.17,3.25.19,2.72,5,4-.08,1.9.37,3.66-3.56-1.28-4.14-.89-4.45.16-3-.68-1.81-.89-4-3.58-4.3-2.7-1.9,3.51L694,722.57l.93,2.13-2.63,1.47-1.3,1.2-.54-.55L686,728.45l-1.36,2.72-2.41,1.22-3.19.35-2.29-.86-1.83-.15-2.9-1.82-5.86,7.25,2,1.53-1.43,1.63.42,2.15,4.63,2.5.89,1.58,1.79,1.4-1,.66,1.07,1.13-.85,1.66,1.53,3.15,2.07-.06.15.1-.54.54-.41,3.29,1.79,2.06L671,765.85l-1.08.32-1.1,1.43v1.16h-.61l-.37,1.13-1.88.13-.27-.28,0-.82L664,767.45l-2.29-1.14h-.28l-.7-3.88-5.43-6.94-2.37-.42-6.68.87-.23,2.32,1.27,4.63-.4.43-3.34-.6-12,1.32-6.19,1.6-3.46,0-1.47-.31-1.82-.89-1.23-1-.6-1,.27-.22-1.38-2.38-2.22-2.25-1.55-.9-4.79-.8-.8-.77-1.85-3.18L602,749.59l-5-.86-2.29-1.45L593.24,745l-1.57-4.64L589.5,738l-1.91-.55-3.17.08-1.07-.43-4.43-2.89-3.82-.93-3.36.68-5,.36-1.68,1.44-1.75,2.91-.79.24-4.64-1.15-3.85-3.84-2.1-1.09h-1.59l-3.24,1.39-1.26,2.44-.36,2.28-.79,1.12-1,.72-3,.73-1.39.2-3.23-.3-2-.84-2.31-3.28-1.4-.92-3,0L526,737.58l-1.36,2.47L521.56,744l-4.63,7.86-1.7,5.66-.24,5.32-.68,1.2-1,.69-8.17,3.76-5,3.44-.54,0-3.36-1.2-3.36-.3-2.36.82-2,1.66-.93.3Z"/><path id="Path_44" data-name="Path 44" class="cls-1" d="M961.46,306.32l.91-2.79.9,3.38-1.87.09Zm-1-4.07-1.06.6-.84-1.2-.66-.26-4-5.91-.6,0-.75-2.84-5.28-.55,7.24-17.6-6.62-1.76-2.49-2.59-.14,0-12.86-19.44-7.48-10.3L912.49,228l-14.7-16.78-4.19-3.92-5-5.79-11.1-11.42-1.37-2-2.58-1.74-11.36-.59-4.78,1.3-8.87,4,0-1.68-1.32-.66-.54-1.88-1.19-.93-1.82-5-1.38-.51-1.13-1.5-3.84-3.37h-1.59l-.49-1.92v-1.85L833.51,169l-1.68-.22-2.28,1-1.4-3.94-4.27-7.44-.38,0-2.2-4.27-2.37-.1-7.22-3.15-2.45.63-2.38-.05-4.51,1.47-5.3,1.05-.2,2-1.64,1.58-2.07.53-.4.76L789.59,161l-2.88,1.22-.78,1.55-.34,3.1-.6.62-1.17.4-1.94,3.17-1.82,1.79-.48,3.24-4,10.53-.51,4.79-1.69.53-3,8-5.81-2.14-5.77-2.3-1.37-2.17-2.15-2.1-4.29-2.3-7.4.31-8-1.21-2.86-2.53-4.23-5.28.39-10.3.67-4.22,3.27-6,.35-1.16,1.77-1.71.34-2.15,1.87-.22,1.16-1.84,1.7-1.39,1.45-2.42.36-1.47.86-1,.54-2.92L742,141.65l-.45-2.28-2.17-1.71-.21-.79,4.09-.67.16-3.47-.17-.55.8-.66.43-1.71-.1-.15.43-.16.86-1.75-.1-.9.78-.7v0l.58.75,1.33-1.4h1.4l.27-3.07-.89-2.55.37-4,.78-.46,2.12.64,1.38-1.09.34-2,.81-1,.14-1.62.37-.6,2.15-.78,2.44-2.84-1.55-2.38-1.91-.43,1.39-12.12L752,88.76l-5-1.2-3.26,2.27-.71.09-.47-.57-.7-2.66-1.28-2L739,83.89l-8.41-2.3-1.46-1.23-.68-1.06-1.21-3.55-.19-4.83,5.59-8.14.25,1.25,2.35.11,9.91-2.92,2.12-.15,1.79.54,8.35,4.68,1,.66,2.44,3.64h1.54L766.57,68l2.87-2.59,7.68-3.51,7.12-2.73L795,57.35l32.24-3.69,7.88-2.29,4.79-1.89,3.94-2.18,7.22-2.88,12-3.92,11.43-1.41H877l6.17,2L886,42.87l1.46.94,2.15-.23,3.46-3.2.09,0,3.42,1.38.23.65,0,.36-4.76-1-.77,3.48,1.94.48-.75,2,5.2,1.24,1.75-.21,3.11.84.77-3.7-2.53-.47.45-1.68,3.37,1.06,5,4.8-.07,1.2-2,5.77-.32,6.89,1.76,1.78,1.79,3.06-1.12,1.8,1.9.8-.33,4.45,1.48,4.45-.08,2,1.54,6.84,1,1.79h1.9l4.22,3.75,1.07,1.38-.89,3.21L925,99.87l.93,1.31,1.38-.19,2.62,1,1.08.83,1.69-.06,1,.33,4.17,2,1.17.26,1.62,1.49,2.06,1.21,4.61,1.78,3.42-.13,1.07.36.8.89,8.81-.21-.55,3.9.44,2.91-2.06,5.7.21,2.72,1,.48.1.9,1.22,1.41,1.86.9.81,1,.85.11.52,1,4.27.17,1.26.33,3.79.17,2.5,1.85,3.75,1,1.49-.58,2.05,1.55,3,.55.67.58,4.64,1.15,1.06,1,.26-.23.17,1.18-.1,2.07,1.1,3.34.32,7.29-.24.78-1.6,1.87-.87,2.3,4.56,3.34-2.41,1.08-2.67.1-3.28,6.22-.08,1.1-.69,1.37-.1,4.12-1.31,2.41-1.34.9,1.24,8.63,4.53,3.34-.51,13.69,3.4,28.69,1.1,2.8L994,238.06l-6.52,22.79-.36,2.35-19.68,32.63-4.36,5.58-.84,1.85,0,.07Zm2.36-193.19h0ZM803.3,11.11l-.53-.44-.58-3.49-3.33-2.36-.71-1.07L798,1.23,798.45,0,799,2,809.3,4.68l1.75.13-.63.1-1.28,1.75.44,1.56-1.25,0-1.72-.67-3.3,2.24,1.44,1.65-.07,0Zm9.32-5.8.37.15.89.75-.46.08ZM834,4.06l-1.5-.3-1.68.33.35-.42,1-.28,4.16.45-.2,1.22Z"/><path id="Path_45" data-name="Path 45" class="cls-1" d="M662,1177.27l-1.75-.5-3.06.34-.68.81-1.51-1.1,0-1.85-1.6-4.46-7.79,4-1.52,1.57-1.09-3.9-4.66,3h-2.47l-1.8,1-.72.15-4.41-6.24-1.84,1-2.13-5.63-4.22.72-5.71,6.58-1.07,2h-1.7l-2.89-2-1.85,2.32-2.77.47-1.28,1.19-.65-.11-1-.8h0l3-4.06,1.4-4.38-.17-1.6-2.19-4.5v-.09l1.75-2.5-.1-1.61-2-3.21-3.17-.27-.43-1.73h-2l-.72-.75-1.77.2-.86-.41,0-.05-.45-1.65-1.23-1.42.31-1.36-1.6-2,.77-1.14-1.52-.74,0-.89-.5-.71.06-.34.73-.78-.51-1.66.55-1-.27-2,.42-.8-.25-.35,1.93-1.65-.9-1.12.44-.07,4.48-2.84h2.77l1.14-3.35,2.18-2,1.13-1.68.57-4.72.3-.44.89-.19,2.9,1.67,2.4-1.23,1.17-2.22v-3.14l.6-1.82,3.12-3.93,1.35-4.26,3.09-1.55-.11-2.9-.94-2-1.35-1.24-2.87-.52-2.33,2-1.11.28-.65-.34-.09-.78,3.18-3.78.8-2,2.69-1.51,2.57-4.31,1.54-1.37.8-1.48.37-1.4-.24-3.77,2.31-4.29.28-1.75-1.53-2.63-3.1-1.3,1.46-2.38,1.87-4.51.19-3.62h.13l3.25,1.73,2.54-.54,1.24-1.57.1-1.76-.84-3.2.2-.35,1.52-1.19.4-1.65-.91-2.17-1.5-1.87,0-.16.75-.73,1.21-.31,4.18,1.66,2.61-2.28.51-1.16.47-3.06-1.6-2.36-1.66-.71-2.74,0-.42-.24-.15-.68.24-.87,3.3-4,.44-.22,4-.49,1.33-4.15,3.7-2.58-5.62-4.35.34-1.4-1.33-1.12-.15-1.35-1.47-1.1-1.69-2.7-3.61,3.38-.08.26-.6-.58-1.79-.18-1.3,1.87-.67.37-1.3.1-2,1.7.77-.84v-2.9l-.87-.18-.09-1,1.2-2.39-1.56-.34.46-1.57-3.28-3.37-3.42-.65-2.88-1.73-1.65,1.31-.52-.26-1.17.7-1.45-.54-.58.79-1.94,0-1.77,1.37-1-.35-.53-.62-2.52-.34v0l-.5-.51-2.91.85-.08-.17-1.58-.77-2.54-.2-.66.17-.74-1.2.7-.51-1.19-2.92L589.7,994l-16.21-6.61,1.91-.59-.07,1.31,9.35-4.7,1.33-7.87.38-9.79,11-15.68,52.41-16.36,16.3-14L650,892.18,647,875l-2-5-3.51-24.18L653,848l4.53,3.6,9.23-1,8.1-2.61,8.42-3.46,2.4,1.92,4.07,5.06,2-1.92.95.79,1.32-1.23,1.2-.14.45-2.11-1.51-1.74-.57-1.28,0-7.12-2.87-4.22L690,831l-.32-2.52.15-4-1-3.4L682,814.37l-5.65-3.47-.36-.4-.25-1.23,1.89-3.81.08-3.14-2.76-1.26h-2.53l-.17-.18,0-.45,2.12-3.27-1.93-7.66-.6-5.47-1.56-1.42-4.12-1.76-7.36-1-1.25-.31-2.36-1.17-1.37-1.74-.51-3.95-1.32-5.48-2.59-2.45,1-1.1-1.44-5.27,3.92-.51.9.16,4.35,5.56,1,5.49H661l1.38.68.53.47,0,.68,1.87,2,3.91-.26.45-.23.29,1.47,10.55.26,2.67,2,5.44,2.35,1.13,1.15.86,2.08.44.32-.58.24-1.86,1.15-.53,2,.57,3.44,1,1.18.13.89,0,.8L688,793.32l.73,3-.19,1.82.92,2.27,2.61,1.68,3.75,1,5.44,2.17.67,1.39,1.47-.51v.8h3.48l4.09,1,0,1.06-.39.63-.8.39-1.44,5.8-.39.06-1.28,3.92-1.55-.72,0,5.09-.87,4.28,4.75,3.36,3.45,3,1.58,3,2.92,3.21,4.23,3.73,1.4,1.71,2.38,5.94,2.26,4.48,2.84,1.89,2.68,2.4,3.4,6,0,8.58,1.37,3.08,1.24,4.81-1.19,8.64,0,.4-.4,0-.88,1.4-.1,7.78-2.22,13,4.68-.23-2.45,4,3,10.31-8.91,8.22-.24,1.42.27.7-5.71,1.24-.09,2-1.23,1.4-1,2.21-.09,1.81L721,949.9l-.13,1.55-2.66,4-3.64,4.63-1.6,3.77-.15,1.13-9.41,10.38L699,978.06l3.51,7.49-1.59-.09-2.33,1.14-.21,1.53.77,4.69.91,10.77,2.69,5.24,2.38.78,3.54.14.87-.85.84-.14,2.08-1.36,2.41-2.53L725.1,1000l.89.51,1,.88-9.11,4.22-1.28,2,8.91,5.56-2.38,1.65-.08,1.05h-.09l-.66.38-2-.2-3.94,1.47-.93-.46-2.12,1.17-.73,1.09-3.12,1.59-4.53.81-1.09,3.06-.22.12-1.25-1.53-.71,3.77-.52.21-.78,1-2.77.88-1.72,1.19-.38,2.29-2.85,3.31-2.68,2-2,.61-2-1.24-.7,1.78-1,.14-1.25,1.89-3.13,2.41-1.44,2.9-3.15,1.13.64,2-.92,1.45-1.83,1.57.17,1.36-.71,1.3.36.9-.32.58,0,2.34-.79.51-2.34.53.33,1.56-2.24,0-.67.24-.16-.87-2.57-3.6-1.7-5.57L660,1049l-6.5,6-7.84,1.09.78,4.33,2.9,3.55-.08.39-.9.08-.43,2.16,1.88,4.76,1.87,2.35,2.2,1-.06,2.44,2.22,1-.43,2,.23,2.55-2.9,3.22,2,3.94,3,.18,4.65-1.86,3.27-2.6,4-.9.25.57,2,1.4,1,1.75,3-.72.66-.69,1.07-.41,9.55-.32-2.45,6.31-.38.62-3.34,2.68,3.95,2.45-.06,1.15,1,6.74,6.45,1.84,1.37,1.09,1.3-.45-.4,2.7,5.33.57,1.16-.82h.09l1.78.58.53.58-.34,1.33-1.06,1-2,7.39.56,2.89,2,2.86.9,2.18-.4.57-.34,1.66-.58.28-.34,1.07-1.2,1.37-.6,4.33L698.5,1138l-.86-2.82-8.61,4.35-1.29.45-1.81-.36-.25,7.76,1.35,2,.23.1v.17l.66,1.5-1.57-.11.84,2.42-1.89,1.84-1.3,2.1-.14.09-.32.08-.58-.53-1.69-.79-1.2-1.34-2.12-.33-1.91,1.46-1.63,2.52-.34,3.93,4.17,1.23,1.53,1.16,1.09,2.42,6.76,4.15-1.26,2.46-1.46,1.22.75,1.77-3.18.74-4.72-.15-.16-1.13-1.64-1.88-3.58-.85-8.13,2.61-2.12,1.81Z"/><path id="Path_46" data-name="Path 46" class="cls-1" d="M569.73,985.59l-1.07-7.37.37-3.28-.25-1.15.3-.4-.16-1.37.38-1.13-.57-2.94-3.36-2.38-4.44-4.8-1.7-2.36-1.14-2.87-7.42-2.09-2.88-.24-.31,1.29-1.12,1-.7,2.1-2.14,2-6.71,1.27-.78,2.37-1.17.13-4.07,5.41-8.06-1.93-10.24-3-1.41,1.29.06,1.55-.7,1.79-.66.55-5.32-.08-5.09.64-8-2-6.06,2.07-.31-.14L483.44,968l3.77-14.15-.66-1.89-11.09-7.18-7.62,2.51-2.52,2-5.67-1.73L459,934.37l-2.24-1.91-.9-1.2-.85-2.34-1.14-1.6L443.71,916l5.06-10.25,3.25-5.53-7.41-17.55-8-.23-.56-.15-1.33-2.3.16-3.29-2.51-1.06-1.5.43-3.36,2.76-1.26,2.3-1.68,1.48-1.18,3.23.65,4.57-1.35,2,.14,1.68-9.63,8.16L411.43,904l-3.38,4.43-.19-1.57-2.78,1.39-4.09.39,2,2-1.13.95-.4-.29-.37-1.68-1.74-1.66-.75-1.81L396.4,906l-.57-.11.28-.9.5-.11,1.11-1.59-2-2.67L392.37,905l-2.2-.56-.41,1.33-2.36.39-1.45-.12-1.36-.93-.29.24v0l1.6-1.37-2-1.88-2.26.92-1.05-.08-.94-3.93.13-1.76-.64-3,.77-.59,1.26-1.9,1,.32,3.26-3-3.15-2.39.76-2.8.52-4.8-2-1.11-3.68-.61-.09-.19-.29-2.85-1.1-1.55-5.38-2.2-2.12.23-.73-.16-1-1.56-3-.34-3.93.88-.59,1-1.34.2-1.6,2.14,0,1.21-.54,1.07-4.17,2.2-2.09,4.19-1.67,1.17-.07.84-2.94.7-1.31,4.06-1.19,2.19-1.84.4-5.41,3.12.6,7-1.16.38-2-.75-3,1.57-2.39-1.22-14.35-2.68L304,901.8l-1.11-8.64,4.61-10.09-3.69-5.4-13.6,2.14-2.14-.33-2.13.36-2.59,2.7-5.37,1-14.23,7.86-1.22.21L259.81,895l3.47,1.23,1.78,0,.45.72-.27,1.78h-1.13l.57,2h-.09l-.53,1.63-2,2.25,2.61,6.39,9.59,12.63-1.29,1.54.54,1.13-.11,0-7.4,3.72-2.6.47-1.16-.1-4.31-1.09-3.87-.13-1.25-6-1.13-1.81-14.81.45-.83-2.44-1.73-.23-.11-.25.26-.25-.1-2.53.66-.78-.1-2.82-1.17-5.6.68-1.36,2.76-2.5-1.83-3-9.77-23.15-3.29-6.92,0-2.65,1.78-5.34-.17-.39,2.73-7.31.36-2.08-.18-2.66L226.4,848l-2.17-3.72-8.48-10.39-.88-2.24-.14-1.3L215,827l1.66-3.6,2.58-2.56,7.32-3.21,2.53-4.74,6.32.75,6.58-1.54,3.54-1.58,5.12-1.09,5.52-2.57,2.56-1.48,2.52-2.62,2-3.24.58-2.53,3.14-3.1.5-1.11,1.51,0,.89-2.31,1.42-.9,3-2.86,18.8,6.28,6.11.63,19.95-5.48,4.1-3.29,16.27-4.66,8-5.68,5.85-5.18,3.48-3.83,1.31-2.08,2.48-7.47,3.66-4.35,3.54-1.91,3.31-1.07,3.18-.19,6.72,1,3.21-.7,1.79-.73,4.24-3.05,4.6-4.76,5.74-2.86,2.59-.6h3.95l7.38,1.63,8.57,1.32.92.66,1.37,3.32,2.39,2.1,6.89,3.15,0,1.35,1.61,1.1,1.07,2.26,2.63,2.9,1.57.63,2.68-.36,2.67-2.82.88-.39.95.15.89.46,2.63,2.72,5.47,2.67,0,.15-.72,2.07-.13,2.2.74,1.67.51.45-.34.51-3.38,2.81.17,5.46,10.69-2.73,3-.12,5.24,1.27,6.18-1.36,1,.12,1.47.61,2.72,2.45,2.6,1,2.37-.77,2-1.68,1.31-.44,2.41.2,3.57,1.28,1.88-.12,5.42-3.73,8.21-3.76,1.64-1.23,1.33-2.29.23-5.64,1.51-5,4.37-7.42,3.07-3.94,1.22-2.22.23-.19,1.21,0,.25.16,2.46,3.5,3.16,1.31,4,.37,1.85-.27,3.63-.89,1.83-1.29,1.44-2,.41-2.48.6-1.16,1.8-.77h.34l1.11.58,4.12,4.1,6.13,1.52,2.53-.77,2.07-3.44.65-.56,4.2-.3,2.93-.57,2.76.65,4.27,2.79,1.86.75,3.32-.08.74.21,1.23,1.37,1.49,4.45,2.06,3,3.24,2.06,4.7.81,1.52,1.45,1.83,3.17,1.69,1.65,5.15.86.79.45,1.71,1.74,0,.07-.3.27,2.07,3.36,1.82,1.55,2.44,1.2,2.08.44,4.1,0,6.36-1.66,11.38-1.26,3.27.6,2.72,2.56,1.1,4.52.56,4.57,2.25,2.84,3.18,1.58,1.71.41,7.12,1,3.34,1.42.45.4.5,4.61,1.69,6.68-2,3,.16,2.4,1.7,1.73h3.1l.55.25,0,.68-2,4.11.58,2.92,1.14,1.27,5.73,3.53,6.13,6,.66,2.26-.14,3.75.4,3.13.91,2.22,2.56,3.76,0,6.85.91,2.07-1,.16-.72.7-2.35-2.92-3.92-3.14-9.84,4.06-7.71,2.48-7.82.8-4.17-3.31-16-3.14,4.12,28.38,2,5.07,3,17.4,15.23,26-14.1,12.08-52.76,16.47-12,17.12-.41,10.43-1.06,6.32-3.8,1.91,0-.49-8.72,2.66ZM406.85,903.47,409,900.4v-1.11l2.45-2.09-1.53-.46.11-.27L414,896l-2.3-1.88.7-.2-.26-1.08.7-.59-2.68-4.44-1.09,3-.22.11-2.82.35-3.09-.69.06,1.38-3.26,2,1.35,1.63-.55.88.33.44-3,2.63,5.05,1,.86,2,1.85-.46Zm-39.66,3.71-1.36-1-.45-1.14,0-1.69-.38-1.58.15-.29.16,0,1.74-.15.48,1,2,.8,2.65.3,2.79,1,1.48,1,1.92.4.72.37-9.75,1.94Z"/><path id="Path_47" data-name="Path 47" class="cls-1" d="M468.44,586.31l-11.68-.86,1.79-.94,2.17-2,1.85-3.28-3.78-7.55-4.74-2.64-1.08,2.1-10.08.27-3-.84-4.35-2.13,0-2.07-.15-.16,5.53-2.49-4.57-4.49.06-1.1-1.74-5.5-1.88,1.68.07-1.51-.94-1,0-1.31-.36-.77h.32l1-1.4,1.37-.55,2.91-.07.34-2.33.55-.28v.26l4.08,2-.87-5-1.46-2-2.08-.18-.68.49-.82-.84-2.11,2.52-2-1.65-2.54.75-.27.72-.85-.73-1.09,3-.86.22-1.7-4-2.36-1-3.17-.1-1.77.5-2.51,1.77-1.41,2.34h0l-4.07-.64-.72.22-2.17-1.2-3.51,1.53.33,3.59L403,548l-1.38,1.22-.21.84-1.13.29-1.3,2.38,0,.94-.18.15-6.7-.34-.95.4-3.27.17-1.48.59-2.17,1.79-.91.89-1.22,2.55-3.74,3-4.31,2-1-.2-2.73.25-2.93-.64L364,565.63,362.39,568l-1.84,1.44-2.32.52-3.56,2.29-.91,1.15-.12-1.35-.88-1.95.43-5.73-6.71-1.07-3.09,1.28-1.27,1.32-.13-.1-1.15.74-4.89.3-8.4,4.9-4.84.34-3.37-.42L315.17,570l-2.86,1-3.11-.72-1.08-.89L308,568l0-.25,2.12-2.65,2.16-11.28-.41-2.89,4.81-4.87,2.62-5.71,0-1.12,1.56-4.11,3-4.3-8.22-3.5-1.18.08-4.21,1.16-1.3,2.42-15.18-6.85,13.88-35.19,2.95-8.56,1.09-4.7.34-5.15,1.52-2.08-1-2.95,1.8-3.89,3.06-8.53,3.18-15.54L324,416l1.65-16.36,2-13.3.1-3.14,1.41-9.47L331.65,352l2.28-10.72,1.46-3.83,2.23-4.3,4.4-14.95,6-24.05,1.38-6.35,1.15-23.13.81-3.44,1.72-3.32,1.12-1.38.44-.19,3.27-.6,1.66.49,2.17-1.06,2.18.11-.52,2.33,1.19-.65.18.81,1.26,1.41h0l.2,1.14h1.63l1.67-.45-1.32,2.84-.9,4.46.59.57.17,1.72h.73l0,.24,3,6.78,1,1.34,17.69,10.15,9.18-2.43,3-2,6.29-2.63-.18-.52,3.59-4.54.85-1.85.36-2,1.84-1.65,2.8-.69,1.84.06,3.69-1.72,2.83.8,2.68-.53,1.16-.56.59.57.43-.15.79.81-.05.09-.24,5,3.12-.55,6.4,12.2.53.28.83,2.64,8.53,16.73-2.57,30.93,2.66.18.63,1.09,1.47,6.16,4,3.67.86,1.34,2.88,2.85,2.42.81,3.55.06,2.74-1.83,1.16-1,2.91-4.79,2.5-.06,3.57.46,1.08.62,1.38.25.77.91,2.41,1.15,2.29.08.36-.31.09.05-.21.88,4.83-.29,1.48,1.27.87.34.64,2.3-.85,1.11.66,1.37-.44.92.51,3.56.47.31-.17,1.71,2.77,2.12-.24.23.18,1.48-.82.48-.38.6-1.7.08-.86,1-.74.15-.42,2.16.07.05-1.3,1.13-3.4.55-.15.12-.36-.14-2.95.69-1,2.69-.18,3.46-1.77,6.41-1,1.45-5.91,3.3-2,1.95-.56,1.34-1.42,0-2.72.63-2.22,1.27-3.6,3.82-3.39.33-3.56.85.49-1.76L455,394.32l-3.74.28-2.37-2.14-1.86-2.6-4.9,1.45-1.55,1.59-.69-.69-.36.23-.69-.06-1.39-1.68-2.78.09-2,2.12-1.79.29-1.09,1.05-2,1-1,2.36-.16,3,.92,5.15-.27,1.56.46.64-.19.72.43,1-.69,1.6.95,2.72,1.06,1.78-.11.7,1.33,3.78-.47,3.1,3.3,3.1.25,1.63,2.78,5-.2,2.69,1.46,1.56,1.37,2.9.24,2,1.63,2.86.34,0-.15.9,2.06,1.68.78,2.61-2.1,3.62-.83.49-.31.59-1.36-.55-1.66,2.19-.22,2.9.39,2.68,1.87,2.18-1.37.14-2-.58-2.93,1.48L429.23,463l2.72,6.54.39.15-.06.29,2.27,1.63-.13,2.28.57,1.57-.5,2,1.28,1.62h1.94l1.25.57,1.82-.37,2.69.69-.13.2-1.3.67-.9,2.35-.32,2.23-.86,1.09-.25.83L438,487l-1.39.54-1,.64-1.33,2.41-2.06.82-1.77,2-1.87,5.21-1,.36-.52.78H425.8l-1.29,1.77.83,1.31-.33.86.1.5-.39-.24-1.17-1.83-3,.56-2,1.15-2.07-2.31-.62.14-2-2-2.67,3.13,1.35,3.57.78.11-1.46,2.76,2.12,2.12,1.6.47,1,1.4,1.35.37.36,1,1.5.95.7,1.23,1.68,1.64,1.91.77,3.24.22,1.56-1.55,1-.12.84.82,0,.12-1.5.78v2.27l1.6,1.6,3.65-.39h0l.18,0h0l3.87-.8,3,.52,2.11-1.54,2.88.43,2.27,1.44,2.5,2.23,3,.45,2.23,1.11,1.07-.3.16.13,2,2.45,2.43,1.4,18.2-3.11,15.41,3.88L503,536l5,4.92L502,545.15l-7.66-1.37-2.3,2.09-1.91-.84-4.6,9.48-5.93,5.28-.17,10.11-.6,3.1-2,4.68-4.65,8.63ZM449,471.73l.28-.31.9-.2.62-1.61-.38-2.12.6.56.37,1.48,2.71.07-.05,0-2.22.3-1.71,1.79ZM329,255.1l-.1-.52.15-.83.76-.79,2.53-1.4,2.25-2,1.29-.3h1.56l3.41.72.93.33-.34,0-2.68.24L333,251.89l-3.7,2,.08,1.5Zm22.65-13-2.08-4.2-.83-4.33.4-7.72,1.63-8.36,1.29-4.34,2.41-5.89,4.88-9.17L366.93,186l2.7-3.6,8.43-13.77,3.39-4.14,2.85-2.52,1.88-.72.36.26,1.65,2.81,1.05.7,1,2.21-.12,2.22.35,2,1.35,2.21,1.47-.48.19.17,1.85,2.55,2.73,5.29-.57.06-.25.8-1,.15-.68,13.56.53,4,0,2.7-.73,2.26-.75.27L391,208l-.31,1.34-1.83,1.11-.25,4.76-1.93,2.64-.35,1.06-.06-.1-3.34,2.74.21,1-.63.91-.75.44-1.7.69-3.88.17-1.15.95-7.37,9.59.05,1.2-.93-1.06-1,.7-1.28-.8H363l-4.35-2-3,2.5,2,1,.3,1.36,1.52.6.7,1.06-2.4,1,.08,1.06-.62.2-2.29-.36-2.38,1.35Z"/><path id="Path_48" data-name="Path 48" class="cls-1" d="M863.4,610.27l-5.64-1-2.23-1,2.08-3.34.42-3.29-.37-1.25.06-2.95-.1-.05.18-.26.08-1.68-.67-2-1.11-1-5.76-3-2.24-.17-.63,1.1-.28-.38-2.53-.79-1.52,1.24-.35,1.09-.65.22-1.42,1.07-.92-.85,1.07-2.22L839,588.36l-.58-1.16-1.33-.55-.07-.55-2.74-1.65-.52,1.23-8.34,1.7-10.4-1.7-4.83,1.73-.12,0-.78-.76-2.41-1.18-.57-.74-1.25-2.82-.13-2.61-1.3-1.26-2-.1-.82-.32-2-4-5.16-5.4-1-2.94L791,562.88l.11-2.92-5.62-.67-3.1.2-1.72-.84L777.46,560l-5.48.33-.57,1.22-.6.1-2.55,1.68-.13,3-1.16,0-2,.58-4.62,0-.1-.09-.29-1.15-.84-.18-.37-1.16L754,565.66l-.28.4-2.38-.82-.14,1.32-1.16-.33-3.14.27-.66-.51-2,0-1.68-.63-3.79-.52L734.83,562l-3.11.14-2-.58-1.19.51-1.2-.14-1.3.66-.44,1.78-.44-.48L724,566.07l-2.12-.88.48,1.34-1.14-.83-.46-1.78.21-.55,1.87-1.21.68-2.27-.38-2.45-4,.37-1.27-.91-2.13-.49v-.11l1.94-2.8-2-1.8-.71-3.08-2.39-3-.21-4-1.44-2-.72-2.28-1-1.82-3.3,0-.6-.19-.12-3.9-1.32-2.9-1.46-.2.33-.4.48-3.38.38-4.33-.32-3.95.16-.26,2.36-.73,2.43-2-.88-2.15L706,509.93l-2.05-.46-.11-.09-.2-.41,0-.75.46-.63,4.71-.9,5.16-2,1-1.17.77-1.63.08-4,1.07-2.14,1.54-6-.19-2-1.58-4.57-4.08-6-2.08-1.55L710,475l.24-3.56-.33-4.89-.84-2.49-2.58-3.12-4-1.8-1.76-1.44L699.54,456l-1.74-4.23-5.57-4.38-1.13-.14-2.58-1.43L687.26,448l-.7.56-2.88,1L673.35,460.3l-1.82-2.62-2.73.68-2.59,1.93-.84-.78-1.37.63-.38-1.22-2.74-5.81L659,449.82l-3.58-4.46-4.74-4.2-2.73,1-1.78-10.12-.93-2.8L633.64,416.9l-3-.53-4.83.08.07-8.42,14.77,0,.87-1.43.81-.34,14.72-3.23,1.38.53,1.57,1.69,4.81-.6,6.62-3.72.28-.7,8.12-1.78,6.2-4.11,1.87-2.17-.16-1.56-.89-1.48-3.47-3.44-4.25-1.16L675.08,381l-3-1-1.75-.13-3.9-1.54,2.15-2.43,2.41-1.67,1.26-1.5,1-.15,1.22-2-.07-2.17-1.37-3-1.11-.86v-.75l-1.27-2.22-1.65-.84-2.45-8.48-1.92-5-1.1-1.72-5.49-5.2-1.08-.06-1.17-.73-2.44-2.08-1.56-2.2-5.36-3.7-2.55-1.23-2.93-.53-.65-.47h-3.89v-.08l-3.75-3.3-1.58-2.8,4.1-2.85,2.66,1.5.71,2.2h2.18l.7-.64.85.44,2.39-.08.94.55,1.24-.05,2.3,1.25,1.9.18,6.12-2.89,1-1.61,2.23-1.4,1.34-2,2.71-1.78.06-2.47.55-.84-.09-.17.44-.2.06-.59,1.79-.22.89-.36,4.22,1.72-.65-3.61.55-.38,1.92-.42.54,2.21,1.55,2.3,1.41,3.85,1.37.29,1.33,1.22,1.67.32,1.5-.08.95-.82,1.76-.59,1.84-.25,1.29,2.63,3.5-1.44,4.32-2.63,1-1.72-.73-3.64,1.54-.63,3.2.36,1.82-.33,1.16-1.19.86-.49,1.42-.14,3.51-2.22,2.14-1.82.94,1.23.58,1.66,1.42,1.88,9.4,10.94,1.8,1,4.79,6.6.83.84-7.84,8.68-.26,1.76-4.24,2.13-6.06,1.46-1,.73-1.66,2.88,5.48,14.11,2.92,6.38,1.36,4.74,1.92,2.54,1.85,1.17.1-.07,1.62,3.36,2.28-.94.33.37,4.66.56,1.48-2,.93,0,.82-.3,0,.18,3.4,1.93.26-.09,2.59,1.3.94-.08,1.07,1.79,2.07,1.55,1.62.12.65.88,2,1.29,1.76-.33.78-1,1.2,1.62,1.41.8,1.95-.25.9-1.33,1.57-.1,3.2-1.52.35,0-.38.46.13,3,2.55,2.29,1.89.67.57.74,2,1.21.11.67,1.28,1.36.66-.07-.06.13,2,2.47.42,2,1,1.36-.24,1.68.86,1.47.14,1.45,1.6,2.15H780l.17.9,1.73.47,3.18-1.69.42-.72,2.49.08.58-1.05,1.94,1,1.86-1.5.17-.94.54-.4-.05.9,1.33,1.71,2,1.27,2.12.34,3.51-1.05,1.31-1.39.3-.94.6.24.39.88,3.35.37.58-.49.85,0,1.58.7H812l.68,1.25,1.07.08.43,1.05.33,0,.15,1h2.66l.95-1.86-.78-7.7-.8-2.4-.53-4.57,0-.1,7.27-6,1.85-1L841.21,380l15.32,7.29,7.55,2.63-1.33,3,.84.28-1.43,1.56.72,1.21-1.33,3.77,4.54.27.93,1.51.65.35.94,1.82-.63,4.44-.91,3.12-.2,4.19,11,9.74-1.16.44-1,.05L874,425l-1.52.09-3.6-.92-1.57,5.25-1.13.91-10.56-2.15,7.47,15.62-1.88,15,4.86,3.73,1.87,1.1,1.46.27,6.73,5.17,2.31.95,4.62,1.39,15.33-.56,3,.7.27,0,0,4.15,4-.84,11.1,3.21,9.17,3.42,2.51-.92,4-3.88,1.11-1.7,2.74-6.33,1.48-1,.24.31.12.9,2.16,5.16,2.2,9.16,3,2.72,3.46,7.85-.22,2,2.8-.15,3,1.18.33-.19v.08l1.45,2.23,2.4,7.3-.17,8.35-4.29,6-.46,2.9-1.95,2.88.2,2.3-.52,1.7-1.71,3.43-.86.79-2.27,5.08-.23,1.58.1,2.21.55,1.76v.14l-.43.3.22,3.17,1.64,1.76,2.67,6.08,4.74,5.3-.63,1.45-4.95,3.21-4.39.3-.16.12,0-.06-3.93-1.07-2.19.49-.84-.34-2.94,1.49-.24,1.1-1.41,1.21.21,3.13-1,2.65L932,577.37l-2.31,5-2.46,3.77-.06,0L923,587l-6.83,1-1,1.61-.2,1.78-5.75,5.35-2.46,11L903,611.29l-8.82.92H879.09l-11.37.08Z"/><path id="Path_49" data-name="Path 49" class="cls-1" d="M391,680.26l-1.81-1.47-.69-2.37L386.26,675l-2.91-3.33-1.64-2.33,1-.47-2.92-4-2-.67-.77-1,9-2.24.75-1.78-3.05-5.9-2.58,1.37-4.39-.17-1.67,1.19-1.4.14-.32-1.06v-.58l2.38-1.71-.45-3.17,1.4-1,3.35-5.21,3.91-3,5.75-2.1,2.54-5.21-10.47.11-.9.22,0-.91-1.58-1.91-.36-1.63-.44-6.29.18-4.41-8.7-6.25,0-.15,3.24-1.46.59-3.8,1.07-1.55,1.57-.66,2.47-.49.11-.06.3,1.21,2.12,1.69,5.64.74,2.94-.46.2-.71,1.52-.73-.95-6.53,5.07-2,.25-2.26-9.51-6.6L383,586.59l-7-7.72-.8-2-1.53.07-.17-.9.05-4.4-1.85-3,0-1.12,1.24-.11,1.53.31,5.43-2.5,4.5-3.59,1.28-2.7.47-.46,1.73-1.41.65-.26,3.3-.17.82-.35,7.13.34,2-1.7,0-1.52.35-.66,1.57-.4.41-1.61.33-.29,2.06-.73-.35-3.75.42-.18,2,1.09,1.24-.37,4.36.69,1.54-.8,1.49-2.5,1.65-1.17.89-.26,2.2.07.85.36,2.36,5.56h2.66l1.36,2.83,0,1.8.87.9L430,555.5l.82,1.72L433,558l.38-.33.28.91-.08,1.85,2.56,2.51-5.3,2.4,2,2.19,0,2.74,6.15,3,3.63,1,12.15-.33.52-1,1.47.83,2.75,5.45-.9,1.6L457,582.22l-3.74,1.95,1,3.89,14.17,1h5.5l5.5-10.21,2.16-5.06.69-3.64.15-9.13,5.41-4.83,3.68-7.57,1.14.5,2.61-2.37,7.47,1.32,7.26-5.19,12.32,12.19,4.45,3.82-3,12.83,10.77,8.79.06,1.69-.54,2.6-.11.1-1.93-.59-2.9,2.31,1.64,1.64.31,1.87-.34,2.43,5.33,1.9,9,1.23.08.38,1.33.58-.18,1,.8.26-.35,2.73,3.3,1.44,1.29,0-.23,1.18.44,1.53,2.77,1.38-.28.55-3.14.45-.3,1.94-2.92-.56,3.85,4.76.5.16-2.58-.27-.9,2.55.77.5-2,2,.33,4.18-3.22,2-3.67,4.67,1.56,1.75.59.14.11.54,5.54,3.3,2.59-.91,3.84,0,.69-2.34,1.13-.08,2.74.58,3.84-4.09.43.12.49-2.3.3-2.42-1-.27L564,622l-.5-.41,1.28-.27L564.1,623l1.36.93.2,2.81,1.54,1.82h.16l.24,1.88-.81,3.34.32.67-.57,5.61-1.32,3.55,2.24,1-.35,2.95,5,1.88-.23,5-3.2.08,5.63,6.14.52-.57.24,2.73,1.39,1.48,2.43,2.27,1.43.28.64,1,.59,3.53,2.45,2.9-.13.86-.75,1.17.08,1.81,1.11,2.7V682l-1.61.39,0,.77-.15-.08-2.53,2.25-3.69-2.48-6.84-1.75-1.74-.75-1.54-1.21-2-3.18-8.56-3.16-1.6-1.46L550.29,669l-1.94-.5-4.6.52-7.35-1.45-2.27,1.24-3.33,2.82-7.71,3-2.07.14-3.83-.82-2.76.44L512,676.07l-2.51,3.23-2.55,1.29-1.45-.09-4-2.65-4.42-.57-3-.82-2.55-1.37-3-3.12-2.7-1.6-3,.76L481.3,673l-2.22,4.3-1.4,1.24-.75.18-2.76-.6-3.33-2.16-1.91-1.26-4.65-.79-1.28-.75L462,671l-.58-4.35-1-1.83-3.82-2.24-2.7-1-2.2-.7-3.37-.19-3.08.89-5.4,2.65-1,1.47-4.5,3.54-2,2.15-.7,2.09-.85,1.18-1.45.16-3.81-3-2.55-.49-1.53.29-2.83,1.67-3.4,4.82-.87.6-1.27-.09-4-1.57h-2.3l-2.36,2.47-1.76,4.2-1.55,1.95-4.5,1.17-2.45.21-1.42.49ZM428.78,547l.75-.19.2-.59.78.69-.06.09Zm2.87-3.06,1.56,1.3-2.13.86-.53.75Z"/><path id="Path_50" data-name="Path 50" class="cls-1" d="M135,992.8l2.09-1.6,1.24-2.46-2.58-4.33-3.51,1.8-4.59,3.27-1.83-1.12-.77.57-.45-.19-1.22.66-1.64-.68-2.21,1.72-1,.23-3.06-1.37-2.28-.37-.29.33-.14-.31-1.48-.38-.26-4.35.25-6.61,1.75-4.8-1-1.63-2.15-.54-2.31-2.07-2.61-1.1-.79,1.7-.29-.2-1.44-2.79-2-1.24-1.26.67-6.33-1.5-1.62.64-5.09-1.47-.12-.07-1.1-2.16L82,961l-.46-.76-5.42-3.18h-4.1l-.82.56-3.33-2-.76.08-.5-.84-8.51-4.51L54.22,955l1.1,2-.72.51-.08-.57-3.42-1.71-2.05.78-.4,1.26-3.37-.43-1.44,3-2-2-4.62.9,3.13,16.87L30.1,976.92l-7.58.53-1.26-.13-3.82-1.46h-.1l-.55-2.93-.71-.92-2.73-2.59-1.47.93-.55-1.14-2.76-1.74L7,964.28l-2-.51.81-.66-.07-3.41-.81-1.31L2.7,956.9l-.4-1,2.75-1.47-5-6,6.43-7.29-.6-4.71L3.59,933.5l-.12-.74.39-3.29-2-3.77.68-1,.63-.44L5.48,924,5.67,923l4-1.45,5.88-3,.67-.1.19.8,3.29,1.06.41-1.5,2.73-.85L24,917l3.56-.5,4-1.31,2.15-1,.11-.36.93-.06,2.61-2.3,2.1-.21,1,.43,4.37.42.7.24.2,1.17L50,914.92l-.23.65,1.83,1.25.41-.18,1.49.05,2.42,2.83,2.11.74,2.75.08.73.2.41.8,1.5.39.34.77,7.15,2.07,11.31,1.8.73.85.27,1.11.59.24.14.6,4.41,2.89,2.21,3.12,3.41.34,2-.63,4.16.83-.29,3,3.81,2,2.48.12.39-1.83-.41-3.69,3,.08.7.88,2.36,1.28.78.11-.06.79,2.73,5.29,2.79-1.52-.65-2.12,1.28-.67,1.75.26,2.1,1.3,7.68-.19,2.28-2.88.41-1.12,3.62-1.09,1.25-1.62,4.34-3L145,930l4.85-1,.18-.46,1-.32,1.18.18.17-.14,2.12,1.66.88-4.33-.2-.46.72-1.41.17-2.31,1.7-1.84-.87-2-.2-2.91,1.94-2.76,2.79.25.59.83,5,.77,0,0,2.07,2.06.41-.18.64,1.07.7.25.6,2.15-.46.31.9,3H173l1.67,3.57,2,2.48,8,.49,2.85.49,5.68,5,4.62,5.49,2.88,1.64,1.8-2-2.75-3.59-.7-1.52,1.21-.47.93,0,.12.09,1,2.12h1.9l.58.42.93,1.32-.26,1.6,2.76.46,1.82-2.81-.5-.44,4.47.24-2.22-2.34,6.25,1.43-3.2-3.2.7-2-2.8-1.46-1.22-1.09-.19-.45,1.45-.06.24-3.09.31-.34h1.26l1.82.77.56,0,1.06.82,1,3.25,1.75,2.92,2.13,2.36-3.1,4.73-13.06,16.87L189.34,969l-4.8,3.12-1,1L180,975l-.79,1.4-3.63.85-1.4-2.36-2.15,1.76-.65.26-.74-1.25-2.86.08-3.76,2.1-1.14,1.29-1.18.46-.37.34-.8-1-3,5-4.13.73-.16,2-.57,1.06-2.23.17-2.2.7-.17-.4-2.66-3-1.38,2.33-1.5.08L141.1,990l.19,1-1,1.41-1.95.89-1.87-.69-.78,1ZM207.83,931l-1.55-.48-1.65-2.84,0-.53L205,927l1.37.48,1.18-1,.52,3.74,1.26.74Zm-10.42-1.56.88.12.43.46Zm31.22-9.34L225,914l-5.51-2.53-1,.19-.28-.82-1.83-1.69-3.28.35L210.88,911l-1.08.4h-1.33l-4,2.43H203.3l-2.58-.5-2.1-1.25L192.26,911l-6.1-2.28-1.15-.3-1.1-1.27-2.88-.85-2-2,0-.49L178,902.22l1.38-2.15-5.09-1.57-.25-1.71-2.21-.89-.44.67-2.46-1.17-1.48-1.64-1.23,0-.27-.48-.86-.42-.35-.82-2.79-1.92-1.49-2.51L157.91,886l-3.82,2.67-3,.25-3.89,2.69-2-1-1.8,1.06.23,1.75-1.55.33,1.63,3.88,0,.83L142.37,901l-.59,2.58-.69.8-.1,1.14-.53.54-2.86,8-.81.39L131,912.77l-2.91,1.53-1,1.05-1.87-.13-1.37,1.19-1.92.27-1.23.64-4.74.32-2.4-2.92L111.12,913l-.32-.67-3.25-2.11.6-2.44-4.49-.3-3.2-2.08L97.61,907H95.8l-.33-.16-1-.86-1.57-5.52-1.47.15-.88-1.9-2.9-2.88-4.16-3.36-2.23-1.22-8.86-.36L70.09,893,70,894.1l-.87.51-.25.11-1.63-.24-1.13.43-1.24-.3-1.63.41-.88-.71-.17-4.1-3.56.52-.07,1.48-2-.67-.78,2.35-.23.87-.85.18,0,.25-.62.33-.24-.11-.57-1.33-2.93-2.83-1.28.11-.15-.26L45,888.42l-2.25-2.13-1.07-1.39-3.68-7-2.62-3.75-3-2.89-1.7-.43L24.08,866l-2.77-3.73-1.08-.59-.45-1.31-.68-.4.25-2.28.93-2.56,5.22-3,5.64-4.52,4-2.58,6.24-3.73,2.15-.73,3.5-2.68,6.75-3.47,1.92-.36,3,.68,2.32-.16,2.35.49,3,2,.57,4.78.76,1.37L69.54,845l-.13.82,1.7,1.68.25,1L74,849.67l3.06,2.47.6.16,2,4.16,1.59,4.71L85,866.59l.67.57v.31l.73.18.73,1.35.88-.4,3.37,2-1-2.66,6.21-1.25-4.65-2,.76-.79,2.29-.46.87-2-1.19-.89L96,857.84l.25-1.53.35-.22-.34.8,4-.24.3-1.13,5.07-.1,5.5.73,2.89-1,.63-1.06.09,0,2.81-.44.36-.46,2.3-.1,1,.17,1.4.8.08.12-.11.85,1.74,1.52,3.89.79,1.4-.66.05.14,4.92-1.36,2.72.93.39-.39,1.19.81.72-1.76.91,0,1-.63,1.2.53,1.68-.07.1.15.26,1.94.72,1.51,3,4.31,4.67-2,2.48.44,5.58,2,2.14,1.08-.06.76.75,2.76h3.38l-.18-2.18.68.08,1.07,2.17.75.11.05.13,3.4,2.37,1.92,2,1.67-.52-.44,1.46.87,2.83.65.39.29.57-1.09,1.88.1.11-.47.58,1.22,1.22.62,2,.88.43,2,2.85,2.53,3.93,1.21.05,2.25,4.9,2.89.67,6.94,4.39.5.77,2.32.33,4.59-.78,1.49-1.4,3.76-2,1.58-.11.44-.58,3.94.68.25.13.57.92,2,.6,4.52-.34-.9-9.15.6-2-1.65-12.38-11.43-5.16-.55-.93,0-.3,1.76-3.62-2.57-2.13-.68-1.69-3.57-.25-1.7-.84-1.12,1.43-.22.05-1.8-2-2.8,1.08-5.31-.21-.33-.45L189,860l-.18-.61-4.33-.32.7-1.07-1.47-.43-1.1-1.15-.59.05-.72-1.93.63-1.09-3.13-2.78-.05,0-.14-1.78-5.15-.94-.46-.26.54-1.5-2.28-3.38-2.8-1.18-1-1.26-2.07-1.18-3.24-.49-.79-1.06.06-1.29,1.08-1.66,3.85-.4-.07-.65.2-.08,1,.45,1.7-1.11,1.13.43,4.33-3.2,2.15-.14,2-2.11.6-.16,1.47.55.54-1.21,2.34-.73,1.94.64,1.46-.23,2.52.53.31.33,1.23,3.4,1.36-.65,1.26,1.29,1.25-.74,2.33,0,4-.81.8.64,2.08-.16,1.4,1.32.88-2.42,3.22-.49.34-2.36.48-.27-.24-3.6-2.89-.19-.88.58-.81-.46-1.67,1.1-6.39-.18-2.27-4.57-2.76-2.22-.9-.05-.14-.11-.12-2.31,1.44.57v-2.75l3-2.64,1.9.06,4.42,1.29,1.57.78,1.35,1.19L209,814.5l6.69,4.08-.43-5.2-1.45-2.55-4.46-2.61-.43,1-2.68-1.67.63-1.18-.39-.77.27-2.23h-.07l.55-.36-1.69-4.47,8.77,6.66,8.66,6,3.46,1.13-1.74,3.27-6.91,3-3.31,3.27-2.07,4.49-.38,4.12.22,2,1.17,3L222,846l1.86,3.19.2.8.15,2.08-.26,1.49-3,8.14.2.43-1.6,4.77.06,3.73,3.52,7.41,9.83,23.3.73,1.18-1.43,1.3-1.35,2.7,1.32,6.31.06,1.5-.68.79.1,2.35-.79.73,1.59,3.48,1.54.2v0l-5.46.24ZM89.22,855.18l-.9-.65-.87-3-2-2.84,3.41-4.47-2.58-1.62-1.4,1.7-1.76,2.55-1.18-.74-1.78-2L77.8,843l-.71-1.64-1.5.64-.13-.08-1.82-4.61v0l.08,0,.7-2.48,1.93-.73,3.66-.82.76-.47-.34,1.94L82.7,833l3.38-.71,2.8,1.9h.37l.62,1.12,4.22.06,2.3-1.43,2,.32,1.26-1.1,3.21-.09.57-.7,3,.65,1.83-1.75,4.83-.45,1-.91,1.28,0,3,1,3.25-1.07h.31l.92,1.17,5.06.93,2.34,2.5,3.91,6.82.67,2.18h.42l.15.6,1.19,2.17-.82.52L131,848,128.1,852l-1.16.38-.22-.1-1.49-1.56-.44-1.31-3.33-2.26-5.4,1.24-2.78,2.26-4.39-1,0,0L106.11,848l-3.59-.44-.13-.11-8,4.63-1.62,2-3.51,2.38Zm66.17-32.63-3.52-3.68h-.45l-1.33-2.73-1.28-1.21-1.71.2-1.31,2.06-2.33-.22-.79.31-2.86-.88,4.25-3.77,1.68-.66-.84-2.64-2.48.62-5,4.5.07-1.88-1.12-2,.19-.4-.94-3.6-1.16-.74-.9-1.5.14-2-5.17-4.9-1.4-.66-2.07.66-4.85-2.49.09-.29-.22-2L118.35,790l-1.68-.9-2.07-.31-1.17.15,0-.17-2.82.5-1.73,1.25-1.36,3.14.1.19-6.6,4.49-1.33.8-7.35,2.57-3.62-1.14-2.6-2.15-2.59-4-.74-2.26-.35-2.29.08-2.44L84.38,783l2-3.55,1.17-1.29,1.26-.55,4.86-1.6,2.85-.17,8.1-3.32,6.27,0,8,1.62,1.35-6.24.76-1.09.82-.45,1.64,1.62,8.07,2.55,3.48-.67,5.42-6.88,3.6-2.14,4.51-1.18,4.1.58,3.64,3.29,9.7,2.17.27.4,1,4.49,4.2,5.94.38,7.83.92,3.6,2.6,4.57,2.52,1,11.41.91,5,1.78,5-.13,3.14.33-1.58,1-9.11,1.38L187.1,802l.79,2.13,1.59,1.62H189l-1.12,2.47-.12,0,0,.35-.26.57.2.09-.07.9-3.35,2.08-.61,1.56-2.16,2.29-2.27,1.1-2.46-1.09L173.21,818l-.4.7-3.13,1.15-3.54,1.93-4.41.09-1.48,1.27-3.49.22Z"/><path id="Path_51" data-name="Path 51" class="cls-1" d="M228.92,810.07l-4.52-1.48-8.28-5.72L204,793.67l-4.29-.46-4.71.13-4.82-1.73-11.36-.91-1.22-.49-1.94-3.41-.75-3-.41-8.35-4.34-6.16-1-4.45L168,763.11l-10.07-2.24-3.72-3.38-5.5-.77-5.43,1.41-4.39,2.6-5.09,6.47-1.78.35-6.76-2.14-.53-.51,1.86-1,1.71-1.65,2.47-6.42.84-2.44-.28-1.5-2.59-6.33-.06-1.9,1.63-2.53,1.87-1.46,2.23-.46,3.58-1.38,2.9-.08,2.5-.66,7.67-3.61,7.68-2.92,2.6-.66,4.85.08.33.15-.55,2.78,4,2.43,1.72,2,2.2.94-.6.67.67.6-.36.9,2.66.85,1.08-1.13.74.39,2.47,2.24,9.49,4.25,3.18,2.38,7.59,3.78,5,3.35,6,2,1.74,1.29.49-.12,5.08,5.56,3.65,3.17,2.81,1.91.53,1.15,4.62,5.71,1.42,1.29,6,3.78,2.4.5,4.13,2.93,4.81,1.86,3.64.66,9.68.52,2.38-.28,1.26-1.15.83-1.41v-.55l.41,0,2.23-7.45-2.37-1.34-.27-1.83-1.6.86-9.5-5.56-8.32-3.86v-.57l-3.31-.82,0,.29-9.17-2.76-6-2.24-1.58-1.2-2.51-3.53.12-.13,0-3.72-4.46-5-4.17-2.3-3-.21-1,.44-.13-.06-5.22-6.36-1-.52-1-1.32-2.66.38-1.71-.32-1.43.43-.3.59-1.86-.12-.13-.1.24-1.8-3.34-.83-.24.76-5.75-2-1.61-1.51-2.51-4-.6.29.13-1.47-1.34-3.22-7.7-11.42-.45-1.08.32-2.47,1.11-1.61,2.86-6.15,1.24-.9-.37-2.63-2.52-2.21-2.77-1.18-1.66,2.74-2.71-.87-1.09.87-.42-.16-1.7,1-1,.1-.15-.07-.05-.1.2-1.7,3.72-13.14.1-4.3L168,677V677l1.33-3.08.34-.25,2.13.34,2-2.93,2.5,1.14.76-.57,1,0,1.52,1,3.16,1.26,2.3,1.92,6.29-5.56,3.66-2.47,2.44-2.09,1.16-1.58,1.66-1.16,3-5.12,3.22-4.43,19.89-23,5.39-6.9,1.22,1,2.88-4.29-1.08-.67,3.4-3.48,1.8-1.32,4.31-4.68,11.59-14.86,7.83-11.5,10.05-17.5L281,552.57l11.8-25.93,17.5,7.9,2-3.67,2.8-.77h.23l4.47,1.9-1.22,1.77-1.84,4.87,0,1-2.19,4.76-5.43,5.5.54,3.8-1.94,10.15-2.13,2.65-.25,1.36.36,2.91,2.45,2,4.51,1,2.64-.9,3.55,1.4,4,.5,5.76-.4,8.39-4.89,5-.3.17-.11.55.4,2.53-2.64,1.82-.75,3.4.54-.29,3.88,1,2.17.08.95-.59,1.43,3.45,2.62,2.71-3.43,2.76-1.77,2.45-.55,2.68-2.09,1.4-2,1.75-.76,1.21.26.07,2.06,1.82,3-.05,3.86.66,3.57,2-.09.25.62,7.81,8.61,4.07,1.45,6.89,4.77-4.5,1.75,1,6.68-.8.37-.06.22-.79.12-4.48-.59-.78-.6-.89-3.77-2.91,1.55-2.38.45-2.58,1.1-1.89,2.74-.45,2.93-3.13,1.4-.78,3.3,9,6.46-.12,3.08.45,6.63.55,2.49,1.33,1.61-.16,3.54,4.22-1,5.63-.06-.07.15-5.1,1.86-4.63,3.52-3.33,5.2L372.48,648l.44,3.13-2.17,1.56v2.43l1.12,3.65,4.4-.45,1.5-1.07,4.2.16.75-.4.88,1.69-11.17,2.74,3.83,5.09,2,.66.38.52-1,.45,3.67,5.19,3.29,3.76,1.67,1,.62,2.17,1.8,1.45,2.36,9.26,4-1.34,2.36-.21,5.61-1.44,2.38-3L407,681l1.17-1.23h.6l3.87,1.54,2.66.17,2.08-1.43,3.34-4.73,1.9-1.12.53-.11,1.36.26,4.17,3.28,3.8-.42,1.83-2.52.64-1.94,1.41-1.55,4.67-3.66.81-1.22,4.5-2.22,2.4-.7,2.53.14,1.8.57,2.41.9,2.93,1.71.36.69.57,4.28L461,675l2.45,1.44,4.59.8.38.25L461.78,690l-1.46.32.37,1.81-3.26,4.72.05.73-.27-.13-4.35,8.06-.46,3.5-2-.49-1.65.42-1.9-.56-1.71,1.4-.31,2.27-1.33,2-1.22.67-3.09,0-3,1.45-.72,2.52,1,2.27.32.19-2.16.87-.42.48-1.86-.74-6.29.16-3.53-3.11-2.16,2.26,1.1,3.47-.62,2.49,2.2,3.65,4.74.64L426.7,737l-2.63-.05-8.67-1.28-7.57-1.69h-4.59l-3.21.75-6.46,3.22-4.76,4.93L385,745.54l-1.25.51-2.48.54-6.5-1-3.82.23-3.89,1.26-4.23,2.28-4.35,5.17L356,762.2l-1,1.59-3.21,3.54-5.62,5-7.53,5.32-16.36,4.67-4.08,3.29-18.89,5.19-5.29-.55-20.08-6.71-4.06,3.81-2,1.26-.56,1.45-1.4.05-1,2.22-3.34,3.32-.66,2.87-1.57,2.59-2,2.12-2.1,1.23-5.13,2.38L245,807.9l-3.56,1.59-5.85,1.37Zm23.85-28.17-.39-.44.63-.4,1.29,1.12-.37,0Zm-5.86-5.58-2.82-.7-3.88-2.27-7.91-5.43v0l.12-.07,1.51.09,2,.05,6.34,1.57,8.48,3.82,4.15,1.36.15.08-4.28,1.67Z"/></g></g></g></svg>